<svg id="Groupe_1715" data-name="Groupe 1715" xmlns="http://www.w3.org/2000/svg" xmlns:xlink="http://www.w3.org/1999/xlink" width="38.234" height="47.44" viewBox="0 0 38.234 47.44">
  <defs>
    <clipPath id="clip-path">
      <rect id="Rectangle_168" data-name="Rectangle 168" width="38.234" height="47.44" transform="translate(0 0)" fill="#fee759"/>
    </clipPath>
  </defs>
  <path id="Tracé_4187" data-name="Tracé 4187" d="M21.956,34.871,25.883,43.6H18.027ZM11.263,47.44H29.419L20.34,27.276Z" fill="#fee759"/>
  <g id="Groupe_1713" data-name="Groupe 1713">
    <g id="Groupe_1712" data-name="Groupe 1712" clip-path="url(#clip-path)">
      <path id="Tracé_4188" data-name="Tracé 4188" d="M28.458,15.842c-5.368,0-9.776,5.281-9.776,11.784S23.09,39.41,28.458,39.41c5.412,0,9.777-5.281,9.777-11.784S33.87,15.842,28.458,15.842m-2.924,10.3a2.762,2.762,0,0,1-2.488-2.968,2.79,2.79,0,0,1,2.488-2.968,2.758,2.758,0,0,1,2.444,2.968,2.73,2.73,0,0,1-2.444,2.968" fill="#fee759"/>
      <path id="Tracé_4189" data-name="Tracé 4189" d="M0,21.379V18.745q0-.9.076-2.736t.2-2.916q.129-1.074.384-2.787A13.21,13.21,0,0,1,1.33,7.544q.41-1.049.946-2.378A6.342,6.342,0,0,1,3.632,3.018a17.6,17.6,0,0,1,1.79-1.56,6.547,6.547,0,0,1,2.3-1.1A11.183,11.183,0,0,1,10.639,0a11.578,11.578,0,0,1,5.522,1.253A10.328,10.328,0,0,1,19.844,4.4a15.457,15.457,0,0,1,2.122,4.654,28.548,28.548,0,0,1,1.024,5.268q.229,2.506.229,5.523,0,2.046-.076,3.683t-.306,3.708a23.959,23.959,0,0,1-.666,3.657,19.2,19.2,0,0,1-1.2,3.2,9.477,9.477,0,0,1-1.816,2.66,8.085,8.085,0,0,1-2.634,1.713,9.021,9.021,0,0,1-3.528.665,17.129,17.129,0,0,1-5.448-.767,9.959,9.959,0,0,1-3.732-2.148,9.5,9.5,0,0,1-2.3-3.631A21.624,21.624,0,0,1,.333,27.67,51.441,51.441,0,0,1,0,21.379m19.538.409a37.064,37.064,0,0,0-.385-5.217,44.186,44.186,0,0,0-1.281-5.83,11.683,11.683,0,0,0-2.848-5.089,6.344,6.344,0,0,0-4.672-1.969q-2.052,0-3.618,2.736A20.1,20.1,0,0,0,4.5,12.556a33.547,33.547,0,0,0-.665,6.419q0,2.1.026,3.2t.179,3.119a21.092,21.092,0,0,0,.435,3.2,20.7,20.7,0,0,0,.9,2.711,7.065,7.065,0,0,0,1.462,2.378A7.792,7.792,0,0,0,9.045,35.06a7.639,7.639,0,0,0,3.05.691q3.748-.206,5.593-4.194a23.159,23.159,0,0,0,1.85-9.769" fill="#fee759"/>
      <path id="Tracé_4190" data-name="Tracé 4190" d="M11.533,2.749c-5.718,0-10.344,7.856-10.344,17.5S5.815,37.708,11.533,37.708c5.761,0,10.387-7.812,10.387-17.458s-4.626-17.5-10.387-17.5m1.44,32.122c-1.7,0-3.055-2.313-3.055-5.15s1.353-5.15,3.055-5.15c1.658,0,3.055,2.313,3.055,5.15s-1.4,5.15-3.055,5.15" fill="#fee759"/>
    </g>
  </g>
</svg>
