<svg id="dly-black" xmlns="http://www.w3.org/2000/svg" width="90.63" height="165" viewBox="0 0 90.63 165">
  <path id="Tracé_8" data-name="Tracé 8" d="M16,139.712c.763.232,1.478.424,2.174.667a73.578,73.578,0,0,0,18.668,4.035,110.988,110.988,0,0,0,17.949-.037,69.1,69.1,0,0,0,17.348-3.361c2.093-.744,4.134-1.658,6.157-2.587a90.126,90.126,0,0,0,11.74-6.489c1.54-1.01,2.929-2.251,4.4-3.372a12.347,12.347,0,0,1,2.141-1.349c-.461.958-.91,1.92-1.389,2.871-.6,1.19-1.234,2.366-1.842,3.552-1.094,2.134-2.163,4.282-3.28,6.4-.833,1.585-1.71,3.147-2.576,4.713-1.7,3.066-3.427,6.113-5.074,9.2-.873,1.643-1.629,3.357-2.384,5.059-.958,2.17-1.861,4.363-2.789,6.544-.859,2.019-1.736,4.031-2.579,6.054-.884,2.119-1.783,4.23-2.594,6.375-.918,2.428-1.817,4.871-2.59,7.351-.94,3.011-1.787,6.054-2.594,9.105-.866,3.276-1.618,6.577-2.447,9.864-.866,3.431-1.758,6.854-2.646,10.281-.494,1.905-1.024,3.8-1.489,5.708-.335,1.382-.17,1.588,1,2.344a12.237,12.237,0,0,1,4.879,5.73,10.871,10.871,0,0,1,.73,6.887,12.559,12.559,0,0,1-5.557,7.889,13.611,13.611,0,0,1-12.669,1.15,12.949,12.949,0,0,1-4.61-3.132,13.351,13.351,0,0,1-2.882-5.092,8.793,8.793,0,0,1-.346-5.14,12.426,12.426,0,0,1,8.158-9.492c.715-.258.991-.593.8-1.393-.332-1.4-.512-2.845-.833-4.256-.8-3.552-1.6-7.1-2.48-10.635-.833-3.335-1.754-6.644-2.679-9.956-.829-2.966-1.68-5.929-2.583-8.877q-1.2-3.946-2.55-7.852-1.21-3.51-2.568-6.964c-.814-2.064-1.7-4.1-2.605-6.128q-1.133-2.515-2.4-4.971-1.233-2.388-2.6-4.7a40.553,40.553,0,0,0-2.565-4.017c-1.651-2.163-3.372-4.282-5.177-6.316a33.661,33.661,0,0,0-3.114-2.749c-.84-.737-1.725-1.448-1.658-2.926Zm50.549,36.414c-.077-1.927-.07-3.862-.251-5.782-.343-3.648-.737-7.285-2.358-10.679a26.93,26.93,0,0,0-3.055-5.207,3.816,3.816,0,0,0-3.6-1.5,9.959,9.959,0,0,0-6.478,3.151,24.88,24.88,0,0,0-5.446,9.087,25.583,25.583,0,0,0-1.271,8.169A117.272,117.272,0,0,0,46.354,200.6c.943,4.348,1.813,8.711,2.775,13.055.472,2.126,1.1,4.219,1.614,6.338.147.6.431.741,1.021.682a14.587,14.587,0,0,1,6.176.427c.866.287,1.12.136,1.356-.759.833-3.151,1.75-6.283,2.454-9.466.958-4.322,1.754-8.678,2.605-13.022.21-1.069.361-2.152.523-3.232a130.139,130.139,0,0,0,1.673-18.5Z" transform="translate(-10.098 -80.344)"/>
  <path id="Tracé_9" data-name="Tracé 9" d="M71.836,1.712c-1.371,3.95-2.727,7.86-4.109,11.836-.656,0-1.511.029-2.366,0a222.184,222.184,0,0,0-23.288.324,106.938,106.938,0,0,0-16.331,2.285,51.534,51.534,0,0,0-12.481,4.23A23.317,23.317,0,0,0,6.827,25a12.392,12.392,0,0,0-3.044,5.513,2.526,2.526,0,0,1-1.315,2.008A1.585,1.585,0,0,1,.71,32.226a1.577,1.577,0,0,1-.645-1.739c.667-2.2,1.26-4.44,2.13-6.559a27.08,27.08,0,0,1,2.882-5.395,40.935,40.935,0,0,1,4.941-5.815A38.364,38.364,0,0,1,20.933,5.563,50.993,50.993,0,0,1,33.064,1.708C36.6,1.085,40.186.673,43.768.359A101.835,101.835,0,0,1,60.73.367c3.534.28,7.053.789,10.576,1.2a2.994,2.994,0,0,1,.527.151Z" transform="translate(0.001 -0.009)"/>
  <path id="Tracé_10" data-name="Tracé 10" d="M95.162,78.744c-4.584-.044-8.033-1.161-10.981-3.825A12.783,12.783,0,0,1,80.99,59.756a13.529,13.529,0,0,1,9.29-7.532,14.677,14.677,0,0,1,11.04,1.352,13.644,13.644,0,0,1,5.284,5.07,12.3,12.3,0,0,1,.652,11.994,12.916,12.916,0,0,1-8.177,7.189C97.59,78.291,96.039,78.545,95.162,78.744Z" transform="translate(-50.364 -32.657)"/>
  <path id="Tracé_11" data-name="Tracé 11" d="M103.062,80.771c-1.507,2.159-2.937,4.381-4.543,6.467a40,40,0,0,1-8.674,7.992A78.652,78.652,0,0,1,82.512,99.8a85.184,85.184,0,0,1-13.3,6.095,52.343,52.343,0,0,1-15.823,2.723,62.424,62.424,0,0,1-17.028-1.949,69.382,69.382,0,0,1-13.1-4.794c-.844-.4-1.706-.77-2.535-1.2-1.083-.56-1.315-1.187-.7-2.251.656-1.124,1.452-2.163,2.226-3.3.464.273.811.457,1.139.674a48.833,48.833,0,0,0,12.429,5.922,46.957,46.957,0,0,0,11.456,2.27,94.869,94.869,0,0,0,9.658.037,55.713,55.713,0,0,0,14.622-2.716c2.384-.766,4.742-1.621,7.079-2.524a61.394,61.394,0,0,0,11.106-5.734,31.616,31.616,0,0,0,2.9-2.067c1.467-1.2,2.889-2.465,4.3-3.733a30.376,30.376,0,0,0,5.111-5.774,8.246,8.246,0,0,1,.8-.892l.21.177Z" transform="translate(-12.436 -50.897)"/>
</svg>
