<?xml version="1.0" encoding="UTF-8" standalone="no"?>
<!-- Created with Inkscape (http://www.inkscape.org/) -->

<svg
   width="200mm"
   height="112.65109mm"
   viewBox="0 0 200 112.65109"
   version="1.1"
   id="svg1"
   xml:space="preserve"
   xmlns:inkscape="http://www.inkscape.org/namespaces/inkscape"
   xmlns:sodipodi="http://sodipodi.sourceforge.net/DTD/sodipodi-0.dtd"
   xmlns="http://www.w3.org/2000/svg"
   xmlns:svg="http://www.w3.org/2000/svg"><sodipodi:namedview
     id="namedview1"
     pagecolor="#ffffff"
     bordercolor="#000000"
     borderopacity="0.25"
     inkscape:showpageshadow="2"
     inkscape:pageopacity="0.0"
     inkscape:pagecheckerboard="0"
     inkscape:deskcolor="#d1d1d1"
     inkscape:document-units="mm" /><defs
     id="defs1"><style
       id="style1">
      .cls-1 {
        fill: #885527;
        stroke-width: 0px;
      }
    </style><clipPath
       id="clip-path"><rect
         id="Rectangle_167"
         data-name="Rectangle 167"
         width="308.15302"
         height="69.268997"
         fill="#3b1100"
         x="0"
         y="0" /></clipPath></defs><g
     inkscape:label="Calque 1"
     inkscape:groupmode="layer"
     id="layer1"
     style="display:inline;fill:#000000;fill-opacity:1"
     transform="translate(-4.9401985,-3.932927)"><g
       id="g4"
       transform="matrix(1.3071895,0,0,1.3071895,75.115846,54.570947)"
       sodipodi:insensitive="true"
       style="fill:#000000;fill-opacity:1"><path
         class="cls-1"
         d="m 20.34,27.28 -9.08,20.16 h 18.16 z m 1.61,7.59 3.93,8.73 h -7.86 z"
         id="path1"
         style="fill:#000000;fill-opacity:1" /><path
         class="cls-1"
         d="m 28.46,15.84 c -5.37,0 -9.78,5.28 -9.78,11.78 0,6.5 4.41,11.78 9.78,11.78 5.37,0 9.78,-5.28 9.78,-11.78 0,-6.5 -4.36,-11.78 -9.78,-11.78 z m -2.92,10.3 c -1.35,0 -2.49,-1.31 -2.49,-2.97 0,-1.66 1.13,-2.97 2.49,-2.97 1.36,0 2.44,1.35 2.44,2.97 0,1.62 -1.09,2.97 -2.44,2.97 z"
         id="path2"
         style="fill:#000000;fill-opacity:1" /><path
         class="cls-1"
         d="M 0,21.38 V 18.75 C 0,18.15 0.03,17.24 0.08,16.01 0.13,14.78 0.2,13.81 0.28,13.09 0.36,12.37 0.49,11.44 0.66,10.3 0.83,9.16 1.05,8.24 1.32,7.54 1.59,6.84 1.91,6.05 2.27,5.16 2.63,4.27 3.08,3.56 3.63,3.01 4.18,2.46 4.77,1.94 5.42,1.45 6.07,0.96 6.84,0.59 7.72,0.35 8.6,0.11 9.58,-0.01 10.64,-0.01 c 2.11,0 3.96,0.42 5.52,1.25 1.56,0.83 2.8,1.88 3.68,3.15 0.88,1.27 1.59,2.81 2.12,4.65 0.53,1.84 0.87,3.6 1.02,5.27 0.15,1.67 0.23,3.51 0.23,5.52 0,1.36 -0.03,2.59 -0.08,3.68 -0.05,1.09 -0.15,2.33 -0.31,3.71 -0.16,1.38 -0.38,2.6 -0.66,3.66 -0.28,1.06 -0.69,2.12 -1.2,3.2 -0.51,1.08 -1.12,1.96 -1.82,2.66 -0.7,0.7 -1.58,1.27 -2.63,1.71 -1.06,0.44 -2.23,0.66 -3.53,0.66 -2.11,0 -3.93,-0.26 -5.45,-0.77 C 6.01,37.83 4.77,37.11 3.8,36.19 2.83,35.27 2.06,34.06 1.5,32.56 0.94,31.06 0.55,29.42 0.32,27.65 0.09,25.88 -0.01,23.78 -0.01,21.36 Z m 19.54,0.41 c 0,-1.67 -0.13,-3.41 -0.38,-5.22 C 18.9,14.76 18.47,12.82 17.88,10.74 17.28,8.66 16.33,6.96 15.03,5.65 13.73,4.34 12.17,3.68 10.36,3.68 8.99,3.68 7.79,4.59 6.74,6.42 5.69,8.25 4.95,10.29 4.51,12.56 c -0.44,2.27 -0.66,4.41 -0.66,6.42 0,1.4 0,2.46 0.03,3.2 0.03,0.74 0.08,1.77 0.18,3.12 0.1,1.35 0.25,2.41 0.43,3.2 0.19,0.78 0.49,1.69 0.9,2.71 0.41,1.02 0.9,1.82 1.46,2.38 0.57,0.56 1.3,1.06 2.21,1.48 0.91,0.42 1.92,0.66 3.05,0.69 2.5,-0.14 4.36,-1.53 5.59,-4.19 1.23,-2.66 1.85,-5.92 1.85,-9.77 z"
         id="path3"
         style="fill:#000000;fill-opacity:1" /><path
         class="cls-1"
         d="m 11.53,2.75 c -5.71,0 -10.34,7.85 -10.34,17.5 0,9.65 4.63,17.46 10.34,17.46 5.71,0 10.39,-7.81 10.39,-17.46 0,-9.65 -4.63,-17.5 -10.39,-17.5 z m 1.44,32.12 c -1.7,0 -3.06,-2.31 -3.06,-5.15 0,-2.84 1.35,-5.15 3.06,-5.15 1.71,0 3.06,2.31 3.06,5.15 0,2.84 -1.4,5.15 -3.06,5.15 z"
         id="path4"
         style="fill:#000000;fill-opacity:1" /></g><g
       id="Groupe_1711"
       data-name="Groupe 1711"
       transform="matrix(0.64902824,0,0,0.64902824,4.9401983,3.9329269)"
       clip-path="url(#clip-path)"
       sodipodi:insensitive="true"
       style="fill:#000000;fill-opacity:1"><path
         id="Tracé_4175"
         data-name="Tracé 4175"
         d="M 39.255,60.845 A 17.952,17.952 0 0 0 38.492,56.58 c -3.705,0.15 -8.58,0.252 -14.727,0.252 -6.093,0 -11.121,0.1 -15.134,0.356 Q 7.414,14.605 6.042,0.971 L 0.608,0.414 C 0.557,4.628 0.506,14.124 0.506,28.9 Q 0.43,50.992 0,64.248 h 9.9 c 12.085,0 22.038,0.254 29.81,0.712 a 36.739,36.739 0 0 1 -0.458,-4.115"
         transform="translate(0,0.756)"
         fill="#3b1100"
         style="fill:#000000;fill-opacity:1" /><path
         id="Tracé_4176"
         data-name="Tracé 4176"
         d="M 40.1,28.926 A 165.2,165.2 0 0 1 33.248,8.1 L 28.777,7.8 c -1.269,4.573 -3.606,11.375 -6.955,20.416 -3.3,8.99 -5.638,15.843 -6.907,20.467 a 4.03,4.03 0 0 0 0.913,2.69 2.534,2.534 0 0 0 4.166,0.051 c 0.455,-1.218 1.015,-3.454 1.778,-6.653 0.76,-3.25 1.371,-5.536 1.877,-7.009 2.134,0.254 7.263,0.916 15.388,1.93 a 95.268,95.268 0 0 1 3.453,10.461 3.161,3.161 0 0 0 0.913,1.778 2.227,2.227 0 0 0 1.475,0.608 1.773,1.773 0 0 0 1.472,-0.862 4.448,4.448 0 0 0 0.608,-2.592 A 197.5,197.5 0 0 0 40.1,28.926 m -9.191,5.991 h -6.651 c 3.606,-9.292 5.791,-16.3 6.6,-21.125 a 61.89,61.89 0 0 0 3.25,11.172 c 1.167,3.1 2.64,6.551 4.366,10.259 -2.029,-0.2 -4.57,-0.305 -7.566,-0.305"
         transform="translate(27.237,14.24)"
         fill="#3b1100"
         style="fill:#000000;fill-opacity:1" /><path
         id="Tracé_4177"
         data-name="Tracé 4177"
         d="m 74.193,55.912 c -7.718,3.911 -13.509,5.89 -17.214,5.89 -3.454,0 -6.5,-1.676 -9.143,-4.926 A 30.258,30.258 0 0 1 42.3,46.315 36.454,36.454 0 0 1 40.624,36.158 c 0,-3.047 0.051,-5.689 0.2,-7.922 A 63.526,63.526 0 0 1 42,20.213 30.407,30.407 0 0 1 44.589,12.492 15.2,15.2 0 0 1 49.464,7.312 13.582,13.582 0 0 1 57.128,5.18 c 4.522,0 9.092,1.727 13.763,5.18 L 74.446,6.245 A 37.13,37.13 0 0 0 65,1.778 35.53,35.53 0 0 0 54.285,0 a 16.349,16.349 0 0 0 -10.31,3.4 20.86,20.86 0 0 0 -6.5,8.936 52.424,52.424 0 0 0 -3,11.022 68.325,68.325 0 0 0 -0.913,11.273 46.474,46.474 0 0 0 1.472,11.121 52.358,52.358 0 0 0 4.214,11.223 24.185,24.185 0 0 0 7.467,8.837 17.308,17.308 0 0 0 10.409,3.454 q 8.839,0 20.111,-7.769 A 49.868,49.868 0 0 0 74.188,55.91"
         transform="translate(61.298)"
         fill="#3b1100"
         style="fill:#000000;fill-opacity:1" /><path
         id="Tracé_4178"
         data-name="Tracé 4178"
         d="m 77.813,52.141 c -2.284,-0.61 -4.621,-2.337 -6.958,-5.028 A 40.445,40.445 0 0 1 65.321,38.632 10.763,10.763 0 0 0 70.45,36.956 10.027,10.027 0 0 0 74,33.35 a 21.276,21.276 0 0 0 1.93,-4.722 22.417,22.417 0 0 0 0.61,-5.282 c 0,-4.977 -1.065,-8.834 -3.25,-11.576 -2.185,-2.742 -5.43,-4.115 -9.847,-4.115 -4.064,0 -7.212,0.709 -9.5,2.235 A 16.613,16.613 0 0 1 53.9,7.757 l -2.744,0.709 c -0.2,5.282 -0.4,12.749 -0.557,22.4 -0.157,9.651 -0.254,16.1 -0.407,19.449 a 3.619,3.619 0 0 0 1.265,2.085 2.917,2.917 0 0 0 2.083,0.862 2.137,2.137 0 0 0 2.083,-1.829 C 55.369,45.34 55.216,40.821 55.165,37.927 l 4.672,0.557 a 52.058,52.058 0 0 0 3.4,5.079 58.312,58.312 0 0 0 4.519,5.129 26.3,26.3 0 0 0 5.435,4.166 11.86,11.86 0 0 0 5.589,1.722 z m -22.852,-19.7 -0.1,-3.3 L 54.556,16.698 54.5,13.9 a 12.147,12.147 0 0 1 7.416,-2.894 9.043,9.043 0 0 1 7.413,3.911 13.707,13.707 0 0 1 2.951,8.683 10.946,10.946 0 0 1 -2.846,7.568 9.131,9.131 0 0 1 -6.955,3.047 15.1,15.1 0 0 1 -7.518,-1.778"
         transform="translate(91.65,13.979)"
         fill="#3b1100"
         style="fill:#000000;fill-opacity:1" /><path
         id="Tracé_4179"
         data-name="Tracé 4179"
         d="M 88.163,23.862 A 37.4,37.4 0 0 0 86.945,17.718 17.006,17.006 0 0 0 84.455,12.334 11.667,11.667 0 0 0 80.19,8.677 13.539,13.539 0 0 0 73.79,7.205 13.865,13.865 0 0 0 70.39,7.612 8.3,8.3 0 0 0 67.7,8.881 24.964,24.964 0 0 0 65.617,10.71 7.2,7.2 0 0 0 64.043,13.2 c -0.407,1.065 -0.814,1.978 -1.116,2.792 a 16.467,16.467 0 0 0 -0.763,3.2 c -0.2,1.32 -0.356,2.436 -0.458,3.25 -0.102,0.814 -0.153,1.981 -0.2,3.4 -0.1,1.422 -0.1,2.487 -0.1,3.2 v 3.047 a 61.685,61.685 0 0 0 0.356,7.314 25.065,25.065 0 0 0 1.371,5.737 11.387,11.387 0 0 0 2.693,4.217 11.713,11.713 0 0 0 4.366,2.487 19.144,19.144 0 0 0 6.3,0.916 10.6,10.6 0 0 0 4.115,-0.814 9.567,9.567 0 0 0 3.1,-1.981 10.069,10.069 0 0 0 2.083,-3.1 24.176,24.176 0 0 0 1.41,-3.706 35.749,35.749 0 0 0 0.76,-4.265 c 0.2,-1.625 0.305,-3.047 0.356,-4.316 0.051,-1.269 0.1,-2.693 0.1,-4.267 0,-2.334 -0.1,-4.519 -0.254,-6.449 m -6.195,20.06 c -1.422,3.1 -3.606,4.722 -6.5,4.875 a 8.948,8.948 0 0 1 -3.555,-0.811 8.267,8.267 0 0 1 -2.589,-1.727 8.68,8.68 0 0 1 -1.676,-2.744 c -0.458,-1.218 -0.814,-2.233 -1.068,-3.148 a 33.923,33.923 0 0 1 -0.506,-3.708 c -0.1,-1.574 -0.153,-2.792 -0.2,-3.654 V 29.3 a 39.789,39.789 0 0 1 0.76,-7.467 23.07,23.07 0 0 1 2.592,-7.159 c 1.218,-2.134 2.64,-3.2 4.214,-3.2 a 7.306,7.306 0 0 1 5.435,2.334 13.355,13.355 0 0 1 3.3,5.892 49.354,49.354 0 0 1 1.526,6.8 50.19,50.19 0 0 1 0.407,6.042 27.078,27.078 0 0 1 -2.134,11.375"
         transform="translate(112.125,13.157)"
         fill="#3b1100"
         style="fill:#000000;fill-opacity:1" /><path
         id="Tracé_4180"
         data-name="Tracé 4180"
         d="m 99.025,7.744 -3.5,-0.305 c -0.1,2.185 -0.153,7.06 -0.2,14.676 -0.047,7.616 -0.2,13.153 -0.455,16.555 -0.153,1.371 -0.254,2.388 -0.356,3.047 a 21.575,21.575 0 0 1 -0.514,2.49 4.722,4.722 0 0 1 -0.964,2.083 7.716,7.716 0 0 1 -1.625,1.422 5.609,5.609 0 0 1 -2.49,1.015 23.96,23.96 0 0 1 -3.606,0.254 9.015,9.015 0 0 1 -3.5,-0.61 6,6 0 0 1 -2.182,-1.422 6.168,6.168 0 0 1 -1.221,-2.385 12.667,12.667 0 0 1 -0.557,-2.744 c -0.1,-0.76 -0.153,-1.829 -0.2,-3.2 -0.1,-2.843 -0.356,-7.667 -0.712,-14.422 C 76.587,17.443 76.386,12.212 76.285,8.555 l -3.25,-0.709 c -0.254,8.634 -0.356,14.422 -0.356,17.265 q 0,5.028 0.305,12.342 v 0.2 c 0.051,1.422 0.153,2.589 0.2,3.657 0.1,1.015 0.2,2.131 0.4,3.25 a 11.73,11.73 0 0 0 0.763,3 10.55,10.55 0 0 0 1.422,2.385 6.824,6.824 0 0 0 2.131,1.878 11.7,11.7 0 0 0 3.2,1.17 19.179,19.179 0 0 0 4.417,0.455 22.094,22.094 0 0 0 5.893,-0.709 11.987,11.987 0 0 0 3.959,-1.829 7.547,7.547 0 0 0 2.388,-3.148 16.174,16.174 0 0 0 1.269,-4.013 32.728,32.728 0 0 0 0.458,-5.028 q 0.305,-7.007 0.305,-12.492 c 0,-5.028 -0.254,-11.172 -0.763,-18.486"
         transform="translate(132.702,13.584)"
         fill="#3b1100"
         style="fill:#000000;fill-opacity:1" /><path
         id="Tracé_4181"
         data-name="Tracé 4181"
         d="M 83.108,12.557 101.7,46.53 c -1.727,0.1 -4.621,0.254 -8.736,0.407 -4.061,0.153 -6.958,0.305 -8.685,0.356 l -0.1,3.657 c 2.286,0.051 4.064,0.1 5.333,0.1 1.727,0 4.316,-0.051 7.769,-0.1 3.454,-0.1 5.943,-0.153 7.518,-0.153 1.218,0 2.69,0.051 4.519,0.153 l -0.356,-3.25 c -0.1,-1.119 -1.472,-3.86 -4.061,-8.278 -2.589,-4.418 -5.801,-9.648 -9.553,-15.642 -3.752,-5.994 -6.1,-9.75 -7.009,-11.375 1.422,-0.051 3.606,-0.153 6.551,-0.2 2.945,-0.1 5.686,-0.2 8.125,-0.305 2.439,-0.105 4.621,-0.252 6.551,-0.4 V 8.242 h -1.778 c -0.254,0 -8.481,-0.1 -24.681,-0.407 z"
         transform="translate(151.766,14.307)"
         fill="#3b1100"
         style="fill:#000000;fill-opacity:1" /><path
         id="Tracé_4182"
         data-name="Tracé 4182"
         d="m 107.221,47.139 c -1.778,-0.153 -3,-0.305 -3.606,-0.407 -0.1,-2.334 -0.153,-6.195 -0.153,-11.63 v -14.93 c -0.051,-4.468 -0.1,-7.26 -0.2,-8.379 q 0.458,-0.076 2.286,-0.15 a 8.213,8.213 0 0 0 2.894,-0.509 l -0.2,-2.9 c -1.676,-0.051 -4.316,-0.1 -7.769,-0.1 -3.4,0 -5.941,0 -7.566,-0.051 l 0.4,3.4 5.994,0.3 c 0.051,2.185 0.153,6.653 0.305,13.356 0.153,6.754 0.251,11.935 0.251,15.49 0,2.69 0,4.722 -0.051,6.093 -0.862,0.051 -3.148,0.356 -6.8,0.967 l 0.15,2.894 c 1.068,0 3,0 5.638,-0.051 h 5.994 c 2.589,0 4.468,0 5.686,0.051 l 0.1,-3.1 c -0.458,-0.1 -1.574,-0.2 -3.352,-0.356"
         transform="translate(169.65,14.768)"
         fill="#3b1100"
         style="fill:#000000;fill-opacity:1" /><path
         id="Tracé_4183"
         data-name="Tracé 4183"
         d="m 118.458,3.336 a 3.93,3.93 0 0 0 -1.422,-0.353 2.016,2.016 0 0 0 -1.116,0.254 4.864,4.864 0 0 0 -0.865,0.557 3.724,3.724 0 0 0 -0.709,0.967 10.422,10.422 0 0 0 -0.56,1.065 c -0.153,0.305 -0.356,0.712 -0.608,1.167 a 9.062,9.062 0 0 1 -0.61,1.221 l -2.69,5.028 4.722,-0.61 4.722,-9.041 z m -12.492,51.953 c 0,-1.676 0.051,-4.316 0.1,-7.871 0.051,-3.5 0.1,-6.195 0.1,-7.922 1.422,-0.051 6.348,-0.458 14.676,-1.17 l -0.56,-2.741 c -0.964,-0.1 -3.25,-0.305 -6.805,-0.56 -3.552,-0.305 -6.042,-0.557 -7.362,-0.709 -0.051,-1.829 -0.153,-4.166 -0.305,-6.958 -0.1,-2.843 -0.2,-4.672 -0.254,-5.587 0.305,-0.051 3.1,-0.3 8.481,-0.709 5.333,-0.458 8.888,-0.814 10.717,-1.17 l -0.661,-2.64 a 101.813,101.813 0 0 0 -11.426,-0.56 c -5.791,-0.051 -9.394,-0.153 -10.717,-0.3 -0.455,4.061 -0.709,11.223 -0.811,21.431 -0.051,10.256 -0.305,17.57 -0.712,21.886 a 26.408,26.408 0 0 0 6.045,0.458 c 1.829,0 4.773,-0.1 8.835,-0.2 4.064,-0.153 6.856,-0.254 8.43,-0.254 l -0.608,-2.64 c -2.337,-0.356 -8.077,-0.964 -17.166,-1.778"
         transform="translate(183.399,5.447)"
         fill="#3b1100"
         style="fill:#000000;fill-opacity:1" /><path
         id="Tracé_4184"
         data-name="Tracé 4184"
         d="M 27.491,9.452 16.927,32.912 H 38.055 Z M 25.764,31.9 30.436,21.946 c 1.167,3.1 2.642,6.551 4.366,10.259 -2.029,-0.2 -4.57,-0.305 -7.566,-0.305 z"
         transform="translate(30.911,17.26)"
         fill="#3b1100"
         style="fill:#000000;fill-opacity:1" /><path
         id="Tracé_4185"
         data-name="Tracé 4185"
         d="m 61.907,8.337 c -6.249,0 -11.378,6.147 -11.378,13.712 0,7.565 5.129,13.712 11.378,13.712 6.3,0 11.372,-6.147 11.372,-13.712 0,-7.565 -5.079,-13.712 -11.372,-13.712 m -7.973,7.111 a 5.081,5.081 0 0 1 2.945,-0.964 c 3.247,0 5.892,3.148 5.892,7.057 0,3.962 -2.645,7.111 -5.892,7.111 a 4.726,4.726 0 0 1 -2.642,-0.763 z"
         transform="translate(92.273,15.224)"
         fill="#3b1100"
         style="fill:#000000;fill-opacity:1" /><path
         id="Tracé_4186"
         data-name="Tracé 4186"
         d="m 73.922,8.338 c -6.653,0 -12.036,9.14 -12.036,20.362 0,11.222 5.384,20.315 12.036,20.315 6.7,0 12.085,-9.092 12.085,-20.314 0,-11.222 -5.381,-20.363 -12.085,-20.363 m 2.589,37.376 c -2.436,0 -4.468,-3.606 -4.468,-8.023 0,-4.417 2.032,-7.973 4.468,-7.973 2.487,0 4.519,3.555 4.519,7.973 0,4.418 -2.03,8.023 -4.519,8.023"
         transform="translate(113.012,15.226)"
         fill="#3b1100"
         style="fill:#000000;fill-opacity:1" /></g></g></svg>
