<svg id="logo-lc-darkbrown-footer" xmlns="http://www.w3.org/2000/svg" xmlns:xlink="http://www.w3.org/1999/xlink" width="308.153" height="69.269" viewBox="0 0 308.153 69.269">
  <defs>
    <clipPath id="clip-path">
      <rect id="Rectangle_167" data-name="Rectangle 167" width="308.153" height="69.269" fill="#3b1100"/>
    </clipPath>
  </defs>
  
  <g id="Groupe_1711" data-name="Groupe 1711" transform="translate(0 0)" clip-path="url(#clip-path)">
    <path id="Tracé_4175" data-name="Tracé 4175" d="M39.255,60.845a17.952,17.952,0,0,0-.763-4.265c-3.705.15-8.58.252-14.727.252-6.093,0-11.121.1-15.134.356Q7.414,14.605,6.042.971L.608.414C.557,4.628.506,14.124.506,28.9Q.43,50.992,0,64.248H9.9c12.085,0,22.038.254,29.81.712a36.739,36.739,0,0,1-.458-4.115" transform="translate(0 0.756)" fill="#3b1100"/>
    <path id="Tracé_4176" data-name="Tracé 4176" d="M40.1,28.926A165.2,165.2,0,0,1,33.248,8.1L28.777,7.8c-1.269,4.573-3.606,11.375-6.955,20.416-3.3,8.99-5.638,15.843-6.907,20.467a4.03,4.03,0,0,0,.913,2.69,2.534,2.534,0,0,0,4.166.051c.455-1.218,1.015-3.454,1.778-6.653.76-3.25,1.371-5.536,1.877-7.009,2.134.254,7.263.916,15.388,1.93A95.268,95.268,0,0,1,42.49,50.153a3.161,3.161,0,0,0,.913,1.778,2.227,2.227,0,0,0,1.475.608,1.773,1.773,0,0,0,1.472-.862,4.448,4.448,0,0,0,.608-2.592A197.5,197.5,0,0,0,40.1,28.926m-9.191,5.991H24.258c3.606-9.292,5.791-16.3,6.6-21.125a61.89,61.89,0,0,0,3.25,11.172c1.167,3.1,2.64,6.551,4.366,10.259-2.029-.2-4.57-.305-7.566-.305" transform="translate(27.237 14.24)" fill="#3b1100"/>
    <path id="Tracé_4177" data-name="Tracé 4177" d="M74.193,55.912c-7.718,3.911-13.509,5.89-17.214,5.89-3.454,0-6.5-1.676-9.143-4.926A30.258,30.258,0,0,1,42.3,46.315a36.454,36.454,0,0,1-1.676-10.157c0-3.047.051-5.689.2-7.922A63.526,63.526,0,0,1,42,20.213a30.407,30.407,0,0,1,2.589-7.721,15.2,15.2,0,0,1,4.875-5.18A13.582,13.582,0,0,1,57.128,5.18c4.522,0,9.092,1.727,13.763,5.18l3.555-4.115A37.13,37.13,0,0,0,65,1.778,35.53,35.53,0,0,0,54.285,0a16.349,16.349,0,0,0-10.31,3.4,20.86,20.86,0,0,0-6.5,8.936,52.424,52.424,0,0,0-3,11.022,68.325,68.325,0,0,0-.913,11.273,46.474,46.474,0,0,0,1.472,11.121,52.358,52.358,0,0,0,4.214,11.223,24.185,24.185,0,0,0,7.467,8.837,17.308,17.308,0,0,0,10.409,3.454q8.839,0,20.111-7.769a49.868,49.868,0,0,0-3.047-5.587" transform="translate(61.298 0)" fill="#3b1100"/>
    <path id="Tracé_4178" data-name="Tracé 4178" d="M77.813,52.141c-2.284-.61-4.621-2.337-6.958-5.028a40.445,40.445,0,0,1-5.534-8.481,10.763,10.763,0,0,0,5.129-1.676A10.027,10.027,0,0,0,74,33.35a21.276,21.276,0,0,0,1.93-4.722,22.417,22.417,0,0,0,.61-5.282c0-4.977-1.065-8.834-3.25-11.576S67.86,7.655,63.443,7.655c-4.064,0-7.212.709-9.5,2.235A16.613,16.613,0,0,1,53.9,7.757l-2.744.709c-.2,5.282-.4,12.749-.557,22.4s-.254,16.1-.407,19.449A3.619,3.619,0,0,0,51.457,52.4a2.917,2.917,0,0,0,2.083.862,2.137,2.137,0,0,0,2.083-1.829c-.254-6.093-.407-10.612-.458-13.506l4.672.557a52.058,52.058,0,0,0,3.4,5.079,58.312,58.312,0,0,0,4.519,5.129,26.3,26.3,0,0,0,5.435,4.166A11.86,11.86,0,0,0,78.78,54.58Zm-22.852-19.7-.1-3.3-.305-12.443L54.5,13.9a12.147,12.147,0,0,1,7.416-2.894,9.043,9.043,0,0,1,7.413,3.911A13.707,13.707,0,0,1,72.28,23.6a10.946,10.946,0,0,1-2.846,7.568,9.131,9.131,0,0,1-6.955,3.047,15.1,15.1,0,0,1-7.518-1.778" transform="translate(91.65 13.979)" fill="#3b1100"/>
    <path id="Tracé_4179" data-name="Tracé 4179" d="M88.163,23.862a37.4,37.4,0,0,0-1.218-6.144,17.006,17.006,0,0,0-2.49-5.384,11.667,11.667,0,0,0-4.265-3.657,13.539,13.539,0,0,0-6.4-1.472,13.865,13.865,0,0,0-3.4.407A8.3,8.3,0,0,0,67.7,8.881a24.964,24.964,0,0,0-2.083,1.829,7.2,7.2,0,0,0-1.574,2.49c-.407,1.065-.814,1.978-1.116,2.792a16.467,16.467,0,0,0-.763,3.2c-.2,1.32-.356,2.436-.458,3.25s-.153,1.981-.2,3.4c-.1,1.422-.1,2.487-.1,3.2v3.047a61.685,61.685,0,0,0,.356,7.314,25.065,25.065,0,0,0,1.371,5.737,11.387,11.387,0,0,0,2.693,4.217,11.713,11.713,0,0,0,4.366,2.487,19.144,19.144,0,0,0,6.3.916,10.6,10.6,0,0,0,4.115-.814,9.567,9.567,0,0,0,3.1-1.981,10.069,10.069,0,0,0,2.083-3.1A24.176,24.176,0,0,0,87.2,43.159a35.749,35.749,0,0,0,.76-4.265c.2-1.625.305-3.047.356-4.316s.1-2.693.1-4.267c0-2.334-.1-4.519-.254-6.449m-6.195,20.06c-1.422,3.1-3.606,4.722-6.5,4.875a8.948,8.948,0,0,1-3.555-.811,8.267,8.267,0,0,1-2.589-1.727,8.68,8.68,0,0,1-1.676-2.744c-.458-1.218-.814-2.233-1.068-3.148a33.923,33.923,0,0,1-.506-3.708c-.1-1.574-.153-2.792-.2-3.654V29.3a39.789,39.789,0,0,1,.76-7.467,23.07,23.07,0,0,1,2.592-7.159c1.218-2.134,2.64-3.2,4.214-3.2a7.306,7.306,0,0,1,5.435,2.334,13.355,13.355,0,0,1,3.3,5.892A49.354,49.354,0,0,1,83.7,26.5a50.19,50.19,0,0,1,.407,6.042,27.078,27.078,0,0,1-2.134,11.375" transform="translate(112.125 13.157)" fill="#3b1100"/>
    <path id="Tracé_4180" data-name="Tracé 4180" d="M99.025,7.744l-3.5-.305c-.1,2.185-.153,7.06-.2,14.676s-.2,13.153-.455,16.555c-.153,1.371-.254,2.388-.356,3.047A21.575,21.575,0,0,1,94,44.207a4.722,4.722,0,0,1-.964,2.083,7.716,7.716,0,0,1-1.625,1.422,5.609,5.609,0,0,1-2.49,1.015,23.96,23.96,0,0,1-3.606.254,9.015,9.015,0,0,1-3.5-.61,6,6,0,0,1-2.182-1.422,6.168,6.168,0,0,1-1.221-2.385,12.667,12.667,0,0,1-.557-2.744c-.1-.76-.153-1.829-.2-3.2-.1-2.843-.356-7.667-.712-14.422s-.557-11.986-.658-15.643l-3.25-.709c-.254,8.634-.356,14.422-.356,17.265q0,5.028.305,12.342v.2c.051,1.422.153,2.589.2,3.657.1,1.015.2,2.131.4,3.25a11.73,11.73,0,0,0,.763,3,10.55,10.55,0,0,0,1.422,2.385A6.824,6.824,0,0,0,77.9,51.823a11.7,11.7,0,0,0,3.2,1.17,19.179,19.179,0,0,0,4.417.455,22.094,22.094,0,0,0,5.893-.709,11.987,11.987,0,0,0,3.959-1.829,7.547,7.547,0,0,0,2.388-3.148,16.174,16.174,0,0,0,1.269-4.013,32.728,32.728,0,0,0,.458-5.028q.305-7.007.305-12.492c0-5.028-.254-11.172-.763-18.486" transform="translate(132.702 13.584)" fill="#3b1100"/>
    <path id="Tracé_4181" data-name="Tracé 4181" d="M83.108,12.557,101.7,46.53c-1.727.1-4.621.254-8.736.407-4.061.153-6.958.305-8.685.356l-.1,3.657c2.286.051,4.064.1,5.333.1,1.727,0,4.316-.051,7.769-.1,3.454-.1,5.943-.153,7.518-.153,1.218,0,2.69.051,4.519.153l-.356-3.25c-.1-1.119-1.472-3.86-4.061-8.278S99.1,29.774,95.348,23.78s-6.1-9.75-7.009-11.375c1.422-.051,3.606-.153,6.551-.2,2.945-.1,5.686-.2,8.125-.305s4.621-.252,6.551-.4V8.242h-1.778c-.254,0-8.481-.1-24.681-.407Z" transform="translate(151.766 14.307)" fill="#3b1100"/>
    <path id="Tracé_4182" data-name="Tracé 4182" d="M107.221,47.139c-1.778-.153-3-.305-3.606-.407-.1-2.334-.153-6.195-.153-11.63V20.172c-.051-4.468-.1-7.26-.2-8.379q.458-.076,2.286-.15a8.213,8.213,0,0,0,2.894-.509l-.2-2.9c-1.676-.051-4.316-.1-7.769-.1-3.4,0-5.941,0-7.566-.051l.4,3.4,5.994.3c.051,2.185.153,6.653.305,13.356.153,6.754.251,11.935.251,15.49,0,2.69,0,4.722-.051,6.093-.862.051-3.148.356-6.8.967l.15,2.894c1.068,0,3,0,5.638-.051h5.994c2.589,0,4.468,0,5.686.051l.1-3.1c-.458-.1-1.574-.2-3.352-.356" transform="translate(169.65 14.768)" fill="#3b1100"/>
    <path id="Tracé_4183" data-name="Tracé 4183" d="M118.458,3.336a3.93,3.93,0,0,0-1.422-.353,2.016,2.016,0,0,0-1.116.254,4.864,4.864,0,0,0-.865.557,3.724,3.724,0,0,0-.709.967,10.422,10.422,0,0,0-.56,1.065c-.153.305-.356.712-.608,1.167a9.062,9.062,0,0,1-.61,1.221l-2.69,5.028,4.722-.61,4.722-9.041ZM105.966,55.289c0-1.676.051-4.316.1-7.871.051-3.5.1-6.195.1-7.922,1.422-.051,6.348-.458,14.676-1.17l-.56-2.741c-.964-.1-3.25-.305-6.805-.56-3.552-.305-6.042-.557-7.362-.709-.051-1.829-.153-4.166-.305-6.958-.1-2.843-.2-4.672-.254-5.587.305-.051,3.1-.3,8.481-.709,5.333-.458,8.888-.814,10.717-1.17l-.661-2.64a101.813,101.813,0,0,0-11.426-.56c-5.791-.051-9.394-.153-10.717-.3-.455,4.061-.709,11.223-.811,21.431-.051,10.256-.305,17.57-.712,21.886a26.408,26.408,0,0,0,6.045.458c1.829,0,4.773-.1,8.835-.2,4.064-.153,6.856-.254,8.43-.254l-.608-2.64c-2.337-.356-8.077-.964-17.166-1.778" transform="translate(183.399 5.447)" fill="#3b1100"/>
    <path id="Tracé_4184" data-name="Tracé 4184" d="M27.491,9.452,16.927,32.912H38.055ZM25.764,31.9l4.672-9.954c1.167,3.1,2.642,6.551,4.366,10.259-2.029-.2-4.57-.305-7.566-.305Z" transform="translate(30.911 17.26)" fill="#3b1100"/>
    <path id="Tracé_4185" data-name="Tracé 4185" d="M61.907,8.337c-6.249,0-11.378,6.147-11.378,13.712s5.129,13.712,11.378,13.712c6.3,0,11.372-6.147,11.372-13.712S68.2,8.337,61.907,8.337m-7.973,7.111a5.081,5.081,0,0,1,2.945-.964c3.247,0,5.892,3.148,5.892,7.057,0,3.962-2.645,7.111-5.892,7.111a4.726,4.726,0,0,1-2.642-.763Z" transform="translate(92.273 15.224)" fill="#3b1100"/>
    <path id="Tracé_4186" data-name="Tracé 4186" d="M73.922,8.338c-6.653,0-12.036,9.14-12.036,20.362S67.27,49.015,73.922,49.015c6.7,0,12.085-9.092,12.085-20.314S80.626,8.338,73.922,8.338m2.589,37.376c-2.436,0-4.468-3.606-4.468-8.023s2.032-7.973,4.468-7.973c2.487,0,4.519,3.555,4.519,7.973S79,45.714,76.511,45.714" transform="translate(113.012 15.226)" fill="#3b1100"/>
  </g>
</svg>
