<?xml version="1.0" encoding="UTF-8"?>
<svg id="Calque_2" data-name="Calque 2" xmlns="http://www.w3.org/2000/svg" viewBox="0 0 38.23 47.44">
  <defs>
    <style>
      .cls-1 {
        fill: #7b146a;
        stroke-width: 0px;
      }
    </style>
  </defs>
  <g id="Calque_1-2" data-name="Calque 1">
    <g>
      <path class="cls-1" d="m20.34,27.28l-9.08,20.16h18.16l-9.08-20.16Zm1.61,7.59l3.93,8.73h-7.86l3.93-8.73Z"/>
      <path class="cls-1" d="m28.46,15.84c-5.37,0-9.78,5.28-9.78,11.78s4.41,11.78,9.78,11.78,9.78-5.28,9.78-11.78-4.36-11.78-9.78-11.78Zm-2.92,10.3c-1.35,0-2.49-1.31-2.49-2.97s1.13-2.97,2.49-2.97,2.44,1.35,2.44,2.97-1.09,2.97-2.44,2.97Z"/>
      <path class="cls-1" d="m0,21.38v-2.63c0-.6.03-1.51.08-2.74s.12-2.2.2-2.92.21-1.65.38-2.79.39-2.06.66-2.76.59-1.49.95-2.38.81-1.6,1.36-2.15,1.14-1.07,1.79-1.56,1.42-.86,2.3-1.1,1.86-.36,2.92-.36c2.11,0,3.96.42,5.52,1.25s2.8,1.88,3.68,3.15,1.59,2.81,2.12,4.65.87,3.6,1.02,5.27.23,3.51.23,5.52c0,1.36-.03,2.59-.08,3.68s-.15,2.33-.31,3.71-.38,2.6-.66,3.66-.69,2.12-1.2,3.2-1.12,1.96-1.82,2.66-1.58,1.27-2.63,1.71c-1.06.44-2.23.66-3.53.66-2.11,0-3.93-.26-5.45-.77s-2.76-1.23-3.73-2.15-1.74-2.13-2.3-3.63-.95-3.14-1.18-4.91-.33-3.87-.33-6.29Zm19.54.41c0-1.67-.13-3.41-.38-5.22-.26-1.81-.69-3.75-1.28-5.83-.6-2.08-1.55-3.78-2.85-5.09s-2.86-1.97-4.67-1.97c-1.37,0-2.57.91-3.62,2.74s-1.79,3.87-2.23,6.14c-.44,2.27-.66,4.41-.66,6.42,0,1.4,0,2.46.03,3.2s.08,1.77.18,3.12c.1,1.35.25,2.41.43,3.2.19.78.49,1.69.9,2.71.41,1.02.9,1.82,1.46,2.38.57.56,1.3,1.06,2.21,1.48s1.92.66,3.05.69c2.5-.14,4.36-1.53,5.59-4.19,1.23-2.66,1.85-5.92,1.85-9.77Z"/>
      <path class="cls-1" d="m11.53,2.75C5.82,2.75,1.19,10.6,1.19,20.25s4.63,17.46,10.34,17.46,10.39-7.81,10.39-17.46S17.29,2.75,11.53,2.75Zm1.44,32.12c-1.7,0-3.06-2.31-3.06-5.15s1.35-5.15,3.06-5.15,3.06,2.31,3.06,5.15-1.4,5.15-3.06,5.15Z"/>
    </g>
  </g>
</svg>