<svg xmlns="http://www.w3.org/2000/svg" width="38.644" height="38.635" viewBox="0 0 38.644 38.635">
  <path id="icon-instagram-purple" d="M19.321,11.65a9.906,9.906,0,1,0,9.906,9.906A9.89,9.89,0,0,0,19.321,11.65Zm0,16.346a6.44,6.44,0,1,1,6.44-6.44A6.452,6.452,0,0,1,19.321,28ZM31.942,11.245a2.31,2.31,0,1,1-2.31-2.31A2.305,2.305,0,0,1,31.942,11.245ZM38.5,13.589c-.147-3.095-.853-5.836-3.121-8.1s-5-2.966-8.1-3.121c-3.19-.181-12.751-.181-15.94,0-3.086.147-5.828.853-8.1,3.112s-2.966,5-3.121,8.1c-.181,3.19-.181,12.751,0,15.94.147,3.095.853,5.836,3.121,8.1s5,2.966,8.1,3.121c3.19.181,12.751.181,15.94,0,3.095-.147,5.836-.853,8.1-3.121s2.966-5,3.121-8.1c.181-3.19.181-12.742,0-15.932ZM34.382,32.944a6.52,6.52,0,0,1-3.673,3.673c-2.543,1.009-8.578.776-11.388.776s-8.854.224-11.388-.776A6.52,6.52,0,0,1,4.26,32.944c-1.009-2.543-.776-8.578-.776-11.388S3.26,12.7,4.26,10.167A6.52,6.52,0,0,1,7.933,6.494c2.543-1.009,8.578-.776,11.388-.776s8.854-.224,11.388.776a6.52,6.52,0,0,1,3.673,3.673c1.009,2.543.776,8.578.776,11.388S35.391,30.409,34.382,32.944Z" transform="translate(0.005 -2.238)" fill="#7b146a"/>
</svg>
