<svg id="logo-lcdm-purple" xmlns="http://www.w3.org/2000/svg" xmlns:xlink="http://www.w3.org/1999/xlink" width="104.327" height="104.02" viewBox="0 0 104.327 104.02">
  <defs>
    <clipPath id="clip-path">
      <path id="Tracé_4069" data-name="Tracé 4069" d="M0,0H97.769V97.437H0ZM0,0" transform="translate(0 0)" fill="#7b146a"/>
    </clipPath>
    <clipPath id="clip-path-2">
      <path id="Tracé_4068" data-name="Tracé 4068" d="M0,12.96,98.072,0l12.96,98.07L12.96,111.03Zm0,0" fill="#7b146a"/>
    </clipPath>
    <clipPath id="clip-path-4">
      <path id="Tracé_4073" data-name="Tracé 4073" d="M60,81H87.66v25.753H60Zm0,0" transform="translate(-60 -81)" fill="#7b146a"/>
    </clipPath>
    <clipPath id="clip-path-5">
      <path id="Tracé_4072" data-name="Tracé 4072" d="M78.954,50.9l33.182,34.579-32,30.708L46.953,81.6Zm0,0" transform="translate(-46.953 -50.898)" fill="#7b146a"/>
    </clipPath>
    <clipPath id="clip-path-7">
      <path id="Tracé_4077" data-name="Tracé 4077" d="M88,80h18.122V91.446H88Zm0,0" transform="translate(-88 -80)" fill="#7b146a"/>
    </clipPath>
    <clipPath id="clip-path-10">
      <path id="Tracé_4081" data-name="Tracé 4081" d="M59,70h6.677V85.261H59Zm0,0" transform="translate(-59 -70)" fill="#7b146a"/>
    </clipPath>
    <clipPath id="clip-path-13">
      <path id="Tracé_4085" data-name="Tracé 4085" d="M84,71h16.215V85.307H84Zm0,0" transform="translate(-84 -71)" fill="#7b146a"/>
    </clipPath>
    <clipPath id="clip-path-16">
      <path id="Tracé_4089" data-name="Tracé 4089" d="M79,65H92.353V81.215H79Zm0,0" transform="translate(-79 -65)" fill="#7b146a"/>
    </clipPath>
    <clipPath id="clip-path-19">
      <path id="Tracé_4093" data-name="Tracé 4093" d="M90,92h16.215v5.723H90Zm0,0" transform="translate(-90 -92)" fill="#7b146a"/>
    </clipPath>
    <clipPath id="clip-path-22">
      <path id="Tracé_4097" data-name="Tracé 4097" d="M72,83h2.861v4.769H72Zm0,0" transform="translate(-72 -83)" fill="#7b146a"/>
    </clipPath>
  </defs>
  <g id="Flyer_double_Assos_1_" data-name="Flyer double Assos (1)" transform="matrix(0.998, -0.07, 0.07, 0.998, 0, 6.82)" clip-path="url(#clip-path)">
    <g id="Groupe_1463" data-name="Groupe 1463" transform="translate(-6.586 -6.734)" clip-path="url(#clip-path-2)">
      <g id="Groupe_1462" data-name="Groupe 1462" clip-path="url(#clip-path-2)">
        <path id="Tracé_4066" data-name="Tracé 4066" d="M55.952,75.757A28.155,28.155,0,1,1,41.214,21.409a28.705,28.705,0,0,1,3.116-.662A28.157,28.157,0,0,1,55.952,75.757Zm38.6-45.664a2.743,2.743,0,0,0-2.883-2.017L79.346,29.136A36.22,36.22,0,0,0,73.6,22.222l3.964-11.144a2.745,2.745,0,0,0-1.22-3.3L68.017,3a2.743,2.743,0,0,0-3.466.614L56.566,13.1a36.178,36.178,0,0,0-8.933-.857L42.558,1.566A2.743,2.743,0,0,0,39.362.1L30.093,2.607a2.75,2.75,0,0,0-2.017,2.886l1.06,12.313A36.023,36.023,0,0,0,22.2,23.553L11.079,19.6a2.747,2.747,0,0,0-3.3,1.221L3,29.148a2.745,2.745,0,0,0,.613,3.466l9.457,7.958a35.775,35.775,0,0,0-.839,8.968L1.568,54.605A2.749,2.749,0,0,0,.1,57.8l2.514,9.268a2.744,2.744,0,0,0,2.884,2.017l12.314-1.06a35.869,35.869,0,0,0,5.747,6.935L19.6,86.086a2.743,2.743,0,0,0,1.221,3.3l8.331,4.778a2.748,2.748,0,0,0,3.467-.613l7.976-9.479a36.027,36.027,0,0,0,8.953.873L54.606,95.6a2.75,2.75,0,0,0,3.2,1.473l9.268-2.514a2.742,2.742,0,0,0,2.016-2.884L68.03,79.357a35.862,35.862,0,0,0,6.934-5.747l11.124,3.959a2.745,2.745,0,0,0,3.3-1.222l4.777-8.33a2.746,2.746,0,0,0-.615-3.467L84.1,56.594a36,36,0,0,0,.839-8.968L95.6,42.559a2.747,2.747,0,0,0,1.471-3.2l-2.514-9.268" transform="translate(6.916 6.921)" fill="#7b146a"/>
      </g>
    </g>
  </g>
  <g id="Flyer_double_Assos_2_" data-name="Flyer double Assos (2)" transform="translate(29.341 31.503)">
    <g id="Groupe_1466" data-name="Groupe 1466" transform="translate(0.954 15.261)" clip-path="url(#clip-path-4)">
      <g id="Groupe_1465" data-name="Groupe 1465" transform="translate(-12.444 -28.711)" clip-path="url(#clip-path-5)">
        <g id="Groupe_1464" data-name="Groupe 1464" clip-path="url(#clip-path-5)">
          <path id="Tracé_4070" data-name="Tracé 4070" d="M86.664,97.591c.145-.54.332-1.073.443-1.617a2.369,2.369,0,0,0-.019-.872c-.119-.63-.268-1.256-.421-1.878a4.207,4.207,0,0,0-1.7-2.4,3.243,3.243,0,0,1-.98-2.146,18.657,18.657,0,0,0-.589-2.016c-.082-.22-.4-.354-.618-.522a3.824,3.824,0,0,1-.369-.257,8.584,8.584,0,0,0-2.616-1.762c-.078-.033-.138-.123-.2-.186.078-.067.142-.175.235-.2a4.6,4.6,0,0,1,.648-.1,3.875,3.875,0,0,0-.335-.484,5.719,5.719,0,0,0-3.219-1.714,2.6,2.6,0,0,0-2.753,1.639,3.561,3.561,0,0,0-.19,2.325l.622,2.071a2.647,2.647,0,0,0,.071.5,31.387,31.387,0,0,0,.9,3.029,9.162,9.162,0,0,0,.958,1.434c.384.607.738,1.237,1.1,1.859a.45.45,0,0,1,.037.343c-.253-.291-.507-.581-.76-.876-.037.033-.074.063-.108.093a6.291,6.291,0,0,0,2.127,3c-.015.033-.03.067-.048.1-.145-.06-.332-.082-.425-.19A15.064,15.064,0,0,1,76.973,95a11.174,11.174,0,0,1-.749-1.725c-.1-.238-.224-.469-.335-.7-.041.007-.082.015-.127.026-.041.5-.052,1.006-.127,1.505-.138.92-.283,1.837-.477,2.746a4.164,4.164,0,0,1-.432.9l-.142-.056c.026-.112.045-.22.075-.328a10.927,10.927,0,0,0,.51-4.188,5.915,5.915,0,0,0-.391-1.151,1.364,1.364,0,0,1-.138-.537,1.07,1.07,0,0,0-.343-.935c-.712-.671-1.386-1.39-2.142-2a7.111,7.111,0,0,0-1.5-.771,2.025,2.025,0,0,0-.477-.115c.022-.082.045-.164.063-.242a1.408,1.408,0,0,1,.507-.041,4.617,4.617,0,0,1,2.362,1.442c.276.324.559.641.853.946a3.778,3.778,0,0,0,.477.369,2.1,2.1,0,0,0,.007-.365q-.112-.755-.235-1.509c-.037-.216-.138-.354-.391-.309-.4.067-.581-.16-.764-.488-.551-1-1.1-2-1.744-2.94a2.279,2.279,0,0,0-1.922-1.162,1.289,1.289,0,0,0-1.166.652,5.647,5.647,0,0,1-.555.715,1.568,1.568,0,0,1-1.639.563,3.271,3.271,0,0,0-.876-.045,2.644,2.644,0,0,0-2.135,1.416,12.888,12.888,0,0,0-.812,1.837c-.134.313-.242.641-.391.946-.32.678-.685,1.338-.987,2.023a4.016,4.016,0,0,0,.268,3.588,4.946,4.946,0,0,0,1.774,1.993,3.818,3.818,0,0,0,2.787.373,4.457,4.457,0,0,0,3.055-2.012c.1-.145.417-.328.447-.3.227.22-.007.395-.134.54a7.733,7.733,0,0,1-2.783,2.25,5.755,5.755,0,0,1-1.107.253c-.19.037-.388.041-.678.071.6.563,1.114,1.058,1.688,1.6.1-.328.186-.619.272-.91l.157.011a3.319,3.319,0,0,1,.216.469c.108.358.194.719.291,1.081a3.118,3.118,0,0,1,.082,1.55,1.056,1.056,0,0,0,.164.637,7.349,7.349,0,0,0,2.31,2.746,4.715,4.715,0,0,0,4.024.686c.242-.068.5-.09.749-.138l.436-.134c.51-.273,1.01-.57,1.535-.816,1.684-.774,3.361-1.561,5.067-2.28a12.975,12.975,0,0,0,4.076-2.929A4.714,4.714,0,0,0,86.664,97.591Zm0,0" transform="translate(-47.58 -52.308)" fill="#7b146a" fill-rule="evenodd"/>
        </g>
      </g>
    </g>
    <g id="Groupe_1469" data-name="Groupe 1469" transform="translate(27.66 14.307)" clip-path="url(#clip-path-7)">
      <g id="Groupe_1468" data-name="Groupe 1468" transform="translate(-39.151 -27.757)" clip-path="url(#clip-path-5)">
        <g id="Groupe_1467" data-name="Groupe 1467" clip-path="url(#clip-path-5)">
          <path id="Tracé_4074" data-name="Tracé 4074" d="M89.713,90.88a3.567,3.567,0,0,0,1.349-.2,8.032,8.032,0,0,0,1.595-.708,2.6,2.6,0,0,0,.607-.738,5.1,5.1,0,0,0,.283-.51c.287.622.7.529,1.11.38,1.375-.5,2.753-1,4.117-1.531a1.5,1.5,0,0,0,1-1.192,5.341,5.341,0,0,1,.586-1.222,4.873,4.873,0,0,0,.421.771.525.525,0,0,0,.436.156,16.284,16.284,0,0,0,3.756-1.662,2.177,2.177,0,0,0,1.147-1.773c-.1-.294-.191-.589-.287-.883-.209-.183-.41-.38-.633-.544a2.068,2.068,0,0,0-1.807-.2,8.845,8.845,0,0,0-3.569,1.736,2.86,2.86,0,0,0-.231.194c-.477.473-.447.454-.049,1.006a3.457,3.457,0,0,1,.387.95c.031.082-.037.194-.063.294a.994.994,0,0,0-.1.015q-.292-.52-.582-1.04c-.033.015-.067.026-.1.041.089.224.194.447.264.678a9.913,9.913,0,0,1,.254,1.077c.018.108-.086.238-.134.358-.078-.1-.2-.186-.227-.3-.13-.51-.209-1.032-.354-1.535a1.1,1.1,0,0,0-1.449-.827,7.87,7.87,0,0,0-2.668,1.345,9.329,9.329,0,0,0-.961.745.646.646,0,0,0-.164.477,2.032,2.032,0,0,0,.227.611,1.173,1.173,0,0,1-.164,1.226,2.877,2.877,0,0,1-.164-.365c-.127-.447-.227-.9-.369-1.338a2.08,2.08,0,0,0-.3-.44c.123.566.272,1.039.324,1.52a1.611,1.611,0,0,1-.309,1.494c-.078-.365-.13-.63-.2-.89a7.817,7.817,0,0,0-.343-1.17.574.574,0,0,0-.488-.242,4.475,4.475,0,0,0-3.171,2.276A1.366,1.366,0,0,0,89.713,90.88Zm0,0" transform="translate(-48.875 -52.285)" fill="#7b146a" fill-rule="evenodd"/>
        </g>
      </g>
    </g>
    <g id="Groupe_1472" data-name="Groupe 1472" transform="translate(0 4.769)" clip-path="url(#clip-path-10)">
      <g id="Groupe_1471" data-name="Groupe 1471" transform="translate(-11.49 -18.219)" clip-path="url(#clip-path-5)">
        <g id="Groupe_1470" data-name="Groupe 1470" clip-path="url(#clip-path-5)">
          <path id="Tracé_4078" data-name="Tracé 4078" d="M65.621,81.818a8.108,8.108,0,0,0-.79-2.191.493.493,0,0,1,.048-.622c.175-.235.317-.492.533-.835l-.522.052a1.956,1.956,0,0,1-.015-1.27c.149-.238.361-.481-.1-.652-.045-.015.183.123.2.056a2.7,2.7,0,0,1,.212-.611,3.551,3.551,0,0,0-.138-3.58,4.807,4.807,0,0,0-1.416-1.61,2.264,2.264,0,0,0-1.7-.443,1.159,1.159,0,0,1-.224-.022l-.44.134c-1.319.827-1.431,2.116-1.364,3.521.071,1.479.816,2.742,1.237,4.11a5.7,5.7,0,0,1,.224.849c.06.436.074.451.488.257.373-.179.76-.335,1.14-.5.026.026.052.056.082.086a1.266,1.266,0,0,1-.186.309,1.371,1.371,0,0,0-.484,1.431,17.2,17.2,0,0,1,.264,1.9,6.147,6.147,0,0,1-.045,1.256c-.093.682.272,1.028.954.939a2.5,2.5,0,0,0,1.487-.771A1.758,1.758,0,0,0,65.621,81.818Zm0,0" transform="translate(-47.551 -51.785)" fill="#7b146a" fill-rule="evenodd"/>
        </g>
      </g>
    </g>
    <g id="Groupe_1475" data-name="Groupe 1475" transform="translate(23.845 5.723)" clip-path="url(#clip-path-13)">
      <g id="Groupe_1474" data-name="Groupe 1474" transform="translate(-35.336 -19.173)" clip-path="url(#clip-path-5)">
        <g id="Groupe_1473" data-name="Groupe 1473" clip-path="url(#clip-path-5)">
          <path id="Tracé_4082" data-name="Tracé 4082" d="M87.448,79.706a.436.436,0,0,0,.153.633,2.651,2.651,0,0,1,.4.462c-.045.045-.093.089-.138.13-.153-.1-.313-.19-.462-.294-.466-.317-.689-.35-1.073-.048A4.545,4.545,0,0,0,84.4,83.246c-.179.9.157,1.353,1.084,1.364a3.821,3.821,0,0,0,2.921-1.159,1.279,1.279,0,0,0,.279-1.487.49.49,0,0,1-.056-.186,1.674,1.674,0,0,1,.063-.261,2.279,2.279,0,0,1,.194.138,1.239,1.239,0,0,1,.119.149c.19-.291.317-.291.469.007.1.2.2.414.294.626.1.246.283.32.488.168,1.1-.82,2.228-1.6,3.241-2.511A13.573,13.573,0,0,1,94.873,78.9c.946-.637,1.874-1.308,2.779-2a7.425,7.425,0,0,0,1.96-2.1,2.2,2.2,0,0,0-.965-3.089,1.544,1.544,0,0,0-1.427.19c-.846.577-1.658,1.211-2.489,1.811-.768.555-1.539,1.107-2.329,1.632-.294.2-.276.395-.1.637a4.471,4.471,0,0,1,.674.972,9.942,9.942,0,0,1,.335,1.7.278.278,0,0,1-.142.235.315.315,0,0,1-.272-.052c-.1-.089.376-.749.294-.861-.425-.551-.842-1.107-1.278-1.643-.112-.138-.257-.3-.488-.142a16.5,16.5,0,0,0-3.372,2.638A8.7,8.7,0,0,0,87.448,79.706Zm0,0" transform="translate(-48.681 -51.856)" fill="#7b146a" fill-rule="evenodd"/>
        </g>
      </g>
    </g>
    <g id="Groupe_1478" data-name="Groupe 1478" transform="translate(19.076 0)" clip-path="url(#clip-path-16)">
      <g id="Groupe_1477" data-name="Groupe 1477" transform="translate(-30.566 -13.45)" clip-path="url(#clip-path-5)">
        <g id="Groupe_1476" data-name="Groupe 1476" clip-path="url(#clip-path-5)">
          <path id="Tracé_4086" data-name="Tracé 4086" d="M87.68,67.546c.019.656-.458.984-.879,1.345-.611.533-1.229,1.054-1.848,1.58-.387.332-.358.674.071.995.209.153.4.332.6.5-.026.045-.048.089-.075.13l-1.2-.347c-.011.048-.026.093-.041.142l.782.369c-.011.056-.026.108-.037.164-.261-.03-.522-.074-.782-.078a.84.84,0,0,0-.522.1,6.872,6.872,0,0,0-1.971,2.575.477.477,0,0,0,.257.7,5.312,5.312,0,0,1,1.04.79,1.767,1.767,0,0,1,.294.518c-.089.063-.119.093-.13.086a7.085,7.085,0,0,0-1.688-.328.85.85,0,0,0-1.069.421,14.218,14.218,0,0,0-.8,2.057,1.359,1.359,0,0,0,.92,1.774,1.084,1.084,0,0,0,1.151-.339c.6-.663,1.17-1.364,1.721-2.075a3.583,3.583,0,0,0,.358-.775c.033.011.067.019.1.03-.063-.194-.138-.384-.183-.581a.757.757,0,0,1,.045-.279c.089.019.22,0,.264.06.212.257.388.142.529-.041.786-1,1.561-2,2.344-3,.175-.227.056-.395-.112-.566a1.8,1.8,0,0,1-.671-1.013c.279.074.5.13.753.194-.171-.294-.328-.57-.514-.883.436.048.436.048,1.326,1.289.2-.2.406-.406.607-.6.238-.238.466-.5.723-.715A14.754,14.754,0,0,0,91.923,68.3a2.255,2.255,0,0,0,.071-2.336,1.554,1.554,0,0,0-1.971-.637,6.154,6.154,0,0,0-2.265,2.042A.338.338,0,0,0,87.68,67.546Zm0,0" transform="translate(-48.462 -51.559)" fill="#7b146a" fill-rule="evenodd"/>
        </g>
      </g>
    </g>
    <g id="Groupe_1481" data-name="Groupe 1481" transform="translate(29.568 25.753)" clip-path="url(#clip-path-19)">
      <g id="Groupe_1480" data-name="Groupe 1480" transform="translate(-41.058 -39.203)" clip-path="url(#clip-path-5)">
        <g id="Groupe_1479" data-name="Groupe 1479" clip-path="url(#clip-path-5)">
          <path id="Tracé_4090" data-name="Tracé 4090" d="M105.906,93.822a1.572,1.572,0,0,0-1.785-.887c-.857.2-1.7.436-2.564.622a4.219,4.219,0,0,1-1.2.108,10.713,10.713,0,0,0-3.163.089c-.294.067-.57.2-.864.279a1.4,1.4,0,0,1-.585.086,7.1,7.1,0,0,0-2.992.179,4.967,4.967,0,0,0-2.064.846,1.26,1.26,0,0,0-.466,1.278.961.961,0,0,0,1.106.756c1.192-.082,2.381-.238,3.566-.373.376-.041.443-.317.443-.641a2.849,2.849,0,0,1,.048-.563c.011-.052.1-.108.16-.119.037-.007.116.067.127.116a2.674,2.674,0,0,1,.089.566.855.855,0,0,0,.648.857,4.423,4.423,0,0,0,3.391-.171,4.671,4.671,0,0,0,.827-.388,2.936,2.936,0,0,0,.477-.6c.074-.093.16-.183.242-.272a.991.991,0,0,1,.071.343c-.063.447,0,.5.455.38-.075-.339-.16-.645-.2-.958-.014-.123.086-.253.134-.38a1.793,1.793,0,0,1,.268.324c.09.186.119.395.2.581.183.417.395.544.82.421a6.408,6.408,0,0,0,2.194-.939A1.318,1.318,0,0,0,105.906,93.822Zm0,0" transform="translate(-48.95 -52.838)" fill="#7b146a" fill-rule="evenodd"/>
        </g>
      </g>
    </g>
    <g id="Groupe_1484" data-name="Groupe 1484" transform="translate(12.399 17.168)" clip-path="url(#clip-path-22)">
      <g id="Groupe_1483" data-name="Groupe 1483" transform="translate(-23.89 -30.619)" clip-path="url(#clip-path-5)">
        <g id="Groupe_1482" data-name="Groupe 1482" clip-path="url(#clip-path-5)">
          <path id="Tracé_4094" data-name="Tracé 4094" d="M73.268,86.067c.153.283.257.589.425.857a4.079,4.079,0,0,0,.578.689c.052.052.2,0,.313,0a1.048,1.048,0,0,0-.022-.291c-.034-.093-.142-.157-.175-.246-.123-.309-.231-.63-.339-.946a3.935,3.935,0,0,0-.291-.849,1.888,1.888,0,0,1-.417-1.092c.011-.242-.075-.414-.354-.361s-.51.157-.469.488a4,4,0,0,0,.2.622l-.071.037C72.851,85.34,73.067,85.7,73.268,86.067Zm0,0" transform="translate(-48.134 -52.419)" fill="#7b146a" fill-rule="evenodd"/>
        </g>
      </g>
    </g>
  </g>
</svg>
