<svg xmlns="http://www.w3.org/2000/svg" xmlns:xlink="http://www.w3.org/1999/xlink" width="182.538" height="182" viewBox="0 0 182.538 182">
  <defs>
    <clipPath id="clip-path">
      <path id="Tracé_4069" data-name="Tracé 4069" d="M0,0H171.062V170.483H0ZM0,0" fill="#3b1100"/>
    </clipPath>
    <clipPath id="clip-path-2">
      <path id="Tracé_4068" data-name="Tracé 4068" d="M0,22.676,171.592,0l22.676,171.59L22.676,194.266Zm0,0" fill="#3b1100"/>
    </clipPath>
    <clipPath id="clip-path-4">
      <path id="Tracé_4073" data-name="Tracé 4073" d="M60,81h48.4v45.059H60Zm0,0" transform="translate(-60 -81)" fill="#3b1100"/>
    </clipPath>
    <clipPath id="clip-path-5">
      <path id="Tracé_4072" data-name="Tracé 4072" d="M102.944,50.9,161,111.4,105,165.13,46.953,104.621Zm0,0" transform="translate(-46.953 -50.898)" fill="#3b1100"/>
    </clipPath>
    <clipPath id="clip-path-7">
      <path id="Tracé_4077" data-name="Tracé 4077" d="M88,80h31.708v20.026H88Zm0,0" transform="translate(-88 -80)" fill="#3b1100"/>
    </clipPath>
    <clipPath id="clip-path-10">
      <path id="Tracé_4081" data-name="Tracé 4081" d="M59,70H70.682V96.7H59Zm0,0" transform="translate(-59 -70)" fill="#3b1100"/>
    </clipPath>
    <clipPath id="clip-path-13">
      <path id="Tracé_4085" data-name="Tracé 4085" d="M84,71h28.37V96.033H84Zm0,0" transform="translate(-84 -71)" fill="#3b1100"/>
    </clipPath>
    <clipPath id="clip-path-16">
      <path id="Tracé_4089" data-name="Tracé 4089" d="M79,65h23.364V93.37H79Zm0,0" transform="translate(-79 -65)" fill="#3b1100"/>
    </clipPath>
    <clipPath id="clip-path-19">
      <path id="Tracé_4093" data-name="Tracé 4093" d="M90,92h28.37v10.013H90Zm0,0" transform="translate(-90 -92)" fill="#3b1100"/>
    </clipPath>
    <clipPath id="clip-path-22">
      <path id="Tracé_4097" data-name="Tracé 4097" d="M72,83h5.007v8.344H72Zm0,0" transform="translate(-72 -83)" fill="#3b1100"/>
    </clipPath>
  </defs>
  <g id="logo_lcdm" data-name="logo lcdm" transform="translate(-1436 -593)">
    <g id="Flyer_double_Assos_1_" data-name="Flyer double Assos (1)" transform="matrix(0.998, -0.07, 0.07, 0.998, 1436, 604.933)" clip-path="url(#clip-path)">
      <g id="Groupe_1463" data-name="Groupe 1463" transform="translate(-11.523 -11.783)" clip-path="url(#clip-path-2)">
        <g id="Groupe_1462" data-name="Groupe 1462" clip-path="url(#clip-path-2)">
          <path id="Tracé_4066" data-name="Tracé 4066" d="M97.9,132.549a49.262,49.262,0,1,1-25.786-95.09A50.222,50.222,0,0,1,77.564,36.3,49.265,49.265,0,0,1,97.9,132.549Zm67.544-79.9a4.8,4.8,0,0,0-5.045-3.529l-21.568,1.856a63.374,63.374,0,0,0-10.046-12.1l6.936-19.5a4.8,4.8,0,0,0-2.134-5.776L119.007,5.248a4.8,4.8,0,0,0-6.064,1.074l-13.971,16.6a63.3,63.3,0,0,0-15.629-1.5L74.463,2.741A4.8,4.8,0,0,0,68.871.168L52.652,4.562a4.811,4.811,0,0,0-3.529,5.049l1.855,21.543A63.028,63.028,0,0,0,38.844,41.209L19.384,34.287a4.807,4.807,0,0,0-5.776,2.136L5.25,51a4.8,4.8,0,0,0,1.073,6.064L22.87,70.986A62.594,62.594,0,0,0,21.4,86.677L2.744,95.541a4.811,4.811,0,0,0-2.578,5.6l4.4,16.216a4.8,4.8,0,0,0,5.047,3.529l21.546-1.855a62.759,62.759,0,0,0,10.055,12.134l-6.924,19.46a4.8,4.8,0,0,0,2.136,5.776L51,164.758a4.808,4.808,0,0,0,6.066-1.073L71.022,147.1a63.035,63.035,0,0,0,15.665,1.527l8.855,18.638a4.812,4.812,0,0,0,5.6,2.578l16.216-4.4a4.8,4.8,0,0,0,3.527-5.047l-1.853-21.548a62.746,62.746,0,0,0,12.132-10.055l19.464,6.927a4.8,4.8,0,0,0,5.776-2.138l8.358-14.574a4.8,4.8,0,0,0-1.076-6.066L147.139,99.02a63,63,0,0,0,1.468-15.69l18.66-8.866a4.807,4.807,0,0,0,2.573-5.6l-4.4-16.216" transform="translate(12.101 12.109)" fill="#3b1100"/>
        </g>
      </g>
    </g>
    <g id="Flyer_double_Assos_2_" data-name="Flyer double Assos (2)" transform="translate(1487.337 648.119)">
      <g id="Groupe_1466" data-name="Groupe 1466" transform="translate(1.669 26.701)" clip-path="url(#clip-path-4)">
        <g id="Groupe_1465" data-name="Groupe 1465" transform="translate(-21.773 -50.235)" clip-path="url(#clip-path-5)">
          <g id="Groupe_1464" data-name="Groupe 1464" clip-path="url(#clip-path-5)">
            <path id="Tracé_4070" data-name="Tracé 4070" d="M106.26,109.722c.254-.945.58-1.877.776-2.829a4.143,4.143,0,0,0-.033-1.525c-.209-1.1-.469-2.2-.737-3.285a7.361,7.361,0,0,0-2.979-4.2c-1.284-.952-1.382-2.392-1.714-3.755a32.648,32.648,0,0,0-1.03-3.527c-.143-.385-.7-.619-1.082-.913a6.691,6.691,0,0,1-.645-.45,15.019,15.019,0,0,0-4.576-3.084c-.137-.059-.241-.215-.359-.326.137-.117.248-.306.411-.352a8.057,8.057,0,0,1,1.134-.17,6.78,6.78,0,0,0-.587-.847,10.007,10.007,0,0,0-5.632-3,4.554,4.554,0,0,0-4.817,2.868,6.231,6.231,0,0,0-.332,4.068l1.089,3.624a4.631,4.631,0,0,0,.124.874,54.91,54.91,0,0,0,1.571,5.3,16.035,16.035,0,0,0,1.675,2.51c.671,1.063,1.291,2.164,1.923,3.253a.788.788,0,0,1,.065.6c-.443-.508-.887-1.017-1.33-1.532-.065.059-.13.111-.189.163.554,2.21,2.106,3.755,3.722,5.248-.026.059-.052.117-.085.176-.254-.1-.58-.143-.743-.332a26.358,26.358,0,0,1-2.575-3.1,19.552,19.552,0,0,1-1.31-3.018c-.176-.417-.391-.821-.587-1.232-.072.013-.143.026-.222.046-.072.874-.091,1.76-.222,2.634-.241,1.61-.5,3.214-.834,4.8A7.285,7.285,0,0,1,85.373,110c-.085-.033-.17-.065-.248-.1.046-.2.078-.385.131-.574A19.119,19.119,0,0,0,86.149,102a10.348,10.348,0,0,0-.684-2.014,2.386,2.386,0,0,1-.241-.939,1.872,1.872,0,0,0-.6-1.636c-1.245-1.173-2.425-2.432-3.748-3.5a12.442,12.442,0,0,0-2.621-1.349,3.543,3.543,0,0,0-.834-.2c.039-.144.078-.287.111-.424a2.464,2.464,0,0,1,.887-.072,8.078,8.078,0,0,1,4.133,2.523c.482.567.978,1.121,1.493,1.656a6.607,6.607,0,0,0,.834.645,3.674,3.674,0,0,0,.013-.639q-.2-1.32-.411-2.64c-.065-.378-.241-.619-.684-.541-.7.118-1.017-.28-1.336-.854-.965-1.747-1.923-3.507-3.051-5.143a3.988,3.988,0,0,0-3.364-2.034A2.255,2.255,0,0,0,74,85.974a9.881,9.881,0,0,1-.971,1.252,2.744,2.744,0,0,1-2.868.984,5.724,5.724,0,0,0-1.532-.078A4.627,4.627,0,0,0,64.9,90.609a22.551,22.551,0,0,0-1.421,3.214c-.235.548-.424,1.121-.685,1.656-.561,1.187-1.2,2.34-1.727,3.54a7.027,7.027,0,0,0,.469,6.278,8.653,8.653,0,0,0,3.1,3.488,6.681,6.681,0,0,0,4.876.652,7.8,7.8,0,0,0,5.345-3.52c.169-.254.73-.574.782-.522.4.385-.013.691-.235.945a13.53,13.53,0,0,1-4.87,3.937,10.067,10.067,0,0,1-1.936.443c-.332.065-.678.072-1.187.124,1.043.984,1.949,1.851,2.953,2.8.169-.574.326-1.083.476-1.591l.274.02a5.806,5.806,0,0,1,.378.821c.189.626.339,1.258.508,1.891a5.455,5.455,0,0,1,.144,2.712,1.848,1.848,0,0,0,.287,1.115,12.858,12.858,0,0,0,4.042,4.8,8.25,8.25,0,0,0,7.04,1.2c.424-.118.873-.157,1.31-.242l.763-.234c.893-.477,1.767-1,2.686-1.429,2.947-1.355,5.88-2.732,8.866-3.989a22.7,22.7,0,0,0,7.132-5.125A8.247,8.247,0,0,0,106.26,109.722Zm0,0" transform="translate(-37.876 -30.491)" fill="#3b1100" fill-rule="evenodd"/>
          </g>
        </g>
      </g>
      <g id="Groupe_1469" data-name="Groupe 1469" transform="translate(48.396 25.033)" clip-path="url(#clip-path-7)">
        <g id="Groupe_1468" data-name="Groupe 1468" transform="translate(-68.501 -48.566)" clip-path="url(#clip-path-5)">
          <g id="Groupe_1467" data-name="Groupe 1467" clip-path="url(#clip-path-5)">
            <path id="Tracé_4074" data-name="Tracé 4074" d="M90.584,98.355A6.24,6.24,0,0,0,92.944,98a14.053,14.053,0,0,0,2.79-1.238A4.545,4.545,0,0,0,96.8,95.474a8.915,8.915,0,0,0,.5-.893c.5,1.089,1.225.926,1.943.665,2.405-.88,4.817-1.747,7.2-2.679a2.619,2.619,0,0,0,1.753-2.086,9.346,9.346,0,0,1,1.025-2.138,8.528,8.528,0,0,0,.736,1.349.919.919,0,0,0,.763.274,28.491,28.491,0,0,0,6.572-2.907,3.809,3.809,0,0,0,2.008-3.1c-.17-.515-.334-1.03-.5-1.545-.365-.319-.718-.665-1.108-.952a3.619,3.619,0,0,0-3.162-.352,15.475,15.475,0,0,0-6.245,3.038,5,5,0,0,0-.4.339c-.835.828-.782.8-.085,1.76a6.049,6.049,0,0,1,.678,1.662c.053.143-.065.339-.11.515a1.748,1.748,0,0,0-.182.026q-.511-.909-1.018-1.819c-.059.026-.117.046-.176.072.156.391.339.782.463,1.186a17.349,17.349,0,0,1,.444,1.884c.032.189-.15.417-.235.626-.137-.17-.352-.326-.4-.522-.228-.893-.365-1.806-.619-2.686a1.933,1.933,0,0,0-2.536-1.447,13.769,13.769,0,0,0-4.668,2.353,16.319,16.319,0,0,0-1.682,1.3,1.129,1.129,0,0,0-.287.834,3.556,3.556,0,0,0,.4,1.069,2.052,2.052,0,0,1-.287,2.145,5.032,5.032,0,0,1-.287-.639c-.222-.782-.4-1.571-.646-2.34a3.64,3.64,0,0,0-.522-.769c.215.991.476,1.819.567,2.66a2.818,2.818,0,0,1-.541,2.614c-.137-.639-.228-1.1-.346-1.558a13.672,13.672,0,0,0-.6-2.047,1,1,0,0,0-.854-.424A7.83,7.83,0,0,0,88.8,94.926,2.389,2.389,0,0,0,90.584,98.355Zm0,0" transform="translate(-19.13 -30.826)" fill="#3b1100" fill-rule="evenodd"/>
          </g>
        </g>
      </g>
      <g id="Groupe_1472" data-name="Groupe 1472" transform="translate(0 8.344)" clip-path="url(#clip-path-10)">
        <g id="Groupe_1471" data-name="Groupe 1471" transform="translate(-20.104 -31.878)" clip-path="url(#clip-path-5)">
          <g id="Groupe_1470" data-name="Groupe 1470" clip-path="url(#clip-path-5)">
            <path id="Tracé_4078" data-name="Tracé 4078" d="M69.914,90.613a14.187,14.187,0,0,0-1.382-3.833.863.863,0,0,1,.085-1.089c.306-.411.554-.86.932-1.46l-.913.091A3.422,3.422,0,0,1,68.61,82.1c.261-.417.632-.841-.17-1.141-.078-.026.319.215.352.1a4.731,4.731,0,0,1,.372-1.069,6.213,6.213,0,0,0-.241-6.265,8.41,8.41,0,0,0-2.477-2.816,3.962,3.962,0,0,0-2.979-.776,2.029,2.029,0,0,1-.391-.039l-.769.235c-2.308,1.447-2.5,3.7-2.386,6.16.124,2.588,1.428,4.8,2.164,7.19a9.972,9.972,0,0,1,.391,1.486c.1.763.13.789.854.45.652-.313,1.33-.587,1.995-.873.046.046.091.1.144.15a2.215,2.215,0,0,1-.326.541,2.4,2.4,0,0,0-.847,2.5,30.087,30.087,0,0,1,.463,3.318,10.755,10.755,0,0,1-.078,2.2c-.163,1.193.476,1.8,1.669,1.643a4.37,4.37,0,0,0,2.6-1.349A3.077,3.077,0,0,0,69.914,90.613Zm0,0" transform="translate(-38.297 -38.064)" fill="#3b1100" fill-rule="evenodd"/>
          </g>
        </g>
      </g>
      <g id="Groupe_1475" data-name="Groupe 1475" transform="translate(41.721 10.013)" clip-path="url(#clip-path-13)">
        <g id="Groupe_1474" data-name="Groupe 1474" transform="translate(-61.825 -33.546)" clip-path="url(#clip-path-5)">
          <g id="Groupe_1473" data-name="Groupe 1473" clip-path="url(#clip-path-5)">
            <path id="Tracé_4082" data-name="Tracé 4082" d="M89.767,85.768a.763.763,0,0,0,.267,1.108,4.64,4.64,0,0,1,.7.808c-.078.078-.163.156-.241.228-.267-.169-.548-.332-.808-.515-.815-.554-1.206-.613-1.877-.085-1.558,1.226-2.96,2.569-3.37,4.648-.313,1.578.274,2.366,1.9,2.386a6.685,6.685,0,0,0,5.111-2.027,2.237,2.237,0,0,0,.489-2.6.857.857,0,0,1-.1-.326,2.928,2.928,0,0,1,.111-.456,3.987,3.987,0,0,1,.339.241,2.17,2.17,0,0,1,.209.261c.332-.508.554-.508.821.013.182.358.352.724.515,1.1.182.43.5.561.854.293,1.916-1.434,3.9-2.8,5.671-4.394a23.752,23.752,0,0,1,2.405-2.08c1.656-1.115,3.279-2.288,4.863-3.5a12.992,12.992,0,0,0,3.43-3.677c.918-1.571.619-4.628-1.689-5.4a2.7,2.7,0,0,0-2.5.332c-1.48,1.01-2.9,2.119-4.355,3.168-1.343.971-2.692,1.936-4.074,2.855-.515.346-.482.691-.183,1.115a7.823,7.823,0,0,1,1.18,1.7,17.4,17.4,0,0,1,.587,2.973.486.486,0,0,1-.248.411.551.551,0,0,1-.476-.091c-.183-.156.658-1.31.515-1.506-.743-.965-1.473-1.936-2.236-2.875-.2-.241-.45-.522-.854-.248-1.708,1.147-4.589,2.953-5.9,4.615A15.224,15.224,0,0,0,89.767,85.768Zm0,0" transform="translate(-21.938 -37.039)" fill="#3b1100" fill-rule="evenodd"/>
          </g>
        </g>
      </g>
      <g id="Groupe_1478" data-name="Groupe 1478" transform="translate(33.377 0)" clip-path="url(#clip-path-16)">
        <g id="Groupe_1477" data-name="Groupe 1477" transform="translate(-53.481 -23.533)" clip-path="url(#clip-path-5)">
          <g id="Groupe_1476" data-name="Groupe 1476" clip-path="url(#clip-path-5)">
            <path id="Tracé_4086" data-name="Tracé 4086" d="M93.724,69.309c.033,1.147-.8,1.721-1.538,2.353-1.069.932-2.151,1.845-3.233,2.764-.678.58-.626,1.18.124,1.74.365.267.7.58,1.05.874-.046.078-.085.156-.131.228-.7-.2-1.395-.4-2.1-.606-.02.085-.046.163-.072.248l1.369.646c-.02.1-.046.189-.065.287-.456-.052-.913-.13-1.369-.137a1.47,1.47,0,0,0-.913.17,12.024,12.024,0,0,0-3.449,4.5.835.835,0,0,0,.45,1.232,9.3,9.3,0,0,1,1.819,1.382,3.092,3.092,0,0,1,.515.906c-.157.111-.209.163-.228.15A12.4,12.4,0,0,0,83,85.476a1.488,1.488,0,0,0-1.871.737,24.876,24.876,0,0,0-1.395,3.6,2.378,2.378,0,0,0,1.61,3.1,1.9,1.9,0,0,0,2.014-.593c1.05-1.16,2.047-2.386,3.012-3.631A6.271,6.271,0,0,0,87,87.333c.059.02.117.033.176.052-.111-.339-.241-.672-.319-1.017a1.325,1.325,0,0,1,.078-.489c.157.033.385.007.463.1.372.45.678.248.926-.072,1.376-1.747,2.732-3.5,4.1-5.254.306-.4.1-.691-.2-.991a3.149,3.149,0,0,1-1.173-1.773c.489.13.873.228,1.317.339-.3-.515-.574-1-.9-1.545.763.085.763.085,2.321,2.256.358-.358.711-.711,1.063-1.056.417-.417.815-.867,1.265-1.252a25.815,25.815,0,0,0,5.033-6,3.946,3.946,0,0,0,.124-4.087,2.719,2.719,0,0,0-3.449-1.115A10.768,10.768,0,0,0,93.861,69,.591.591,0,0,0,93.724,69.309Zm0,0" transform="translate(-25.106 -41.336)" fill="#3b1100" fill-rule="evenodd"/>
          </g>
        </g>
      </g>
      <g id="Groupe_1481" data-name="Groupe 1481" transform="translate(51.734 45.059)" clip-path="url(#clip-path-19)">
        <g id="Groupe_1480" data-name="Groupe 1480" transform="translate(-71.838 -68.592)" clip-path="url(#clip-path-5)">
          <g id="Groupe_1479" data-name="Groupe 1479" clip-path="url(#clip-path-5)">
            <path id="Tracé_4090" data-name="Tracé 4090" d="M117.7,94.517a2.751,2.751,0,0,0-3.122-1.552c-1.5.345-2.979.763-4.486,1.089a7.381,7.381,0,0,1-2.1.189,18.744,18.744,0,0,0-5.535.157c-.515.117-1,.352-1.512.489a2.448,2.448,0,0,1-1.023.15,12.426,12.426,0,0,0-5.235.313,8.691,8.691,0,0,0-3.612,1.48,2.2,2.2,0,0,0-.815,2.236,1.682,1.682,0,0,0,1.936,1.323c2.086-.143,4.166-.417,6.239-.652.658-.072.776-.554.776-1.121a4.987,4.987,0,0,1,.085-.984c.02-.091.176-.189.28-.209.065-.013.2.117.222.2a4.678,4.678,0,0,1,.157.991,1.5,1.5,0,0,0,1.134,1.5,7.738,7.738,0,0,0,5.933-.3,8.172,8.172,0,0,0,1.447-.678,5.137,5.137,0,0,0,.834-1.05c.13-.163.28-.319.424-.476a1.734,1.734,0,0,1,.123.6c-.11.782-.007.88.8.665-.132-.593-.28-1.128-.347-1.675-.025-.215.15-.443.235-.665a3.137,3.137,0,0,1,.469.567c.157.326.209.691.352,1.017.32.73.691.952,1.435.737a11.211,11.211,0,0,0,3.838-1.643A2.307,2.307,0,0,0,117.7,94.517Zm0,0" transform="translate(-18.042 -22.809)" fill="#3b1100" fill-rule="evenodd"/>
          </g>
        </g>
      </g>
      <g id="Groupe_1484" data-name="Groupe 1484" transform="translate(21.695 30.039)" clip-path="url(#clip-path-22)">
        <g id="Groupe_1483" data-name="Groupe 1483" transform="translate(-41.799 -53.572)" clip-path="url(#clip-path-5)">
          <g id="Groupe_1482" data-name="Groupe 1482" clip-path="url(#clip-path-5)">
            <path id="Tracé_4094" data-name="Tracé 4094" d="M73.836,87.753c.267.5.45,1.03.743,1.5a7.138,7.138,0,0,0,1.01,1.206c.091.091.358,0,.548,0a1.835,1.835,0,0,0-.039-.508c-.059-.163-.248-.274-.306-.43-.215-.541-.4-1.1-.593-1.656a6.886,6.886,0,0,0-.508-1.486,3.3,3.3,0,0,1-.73-1.91c.02-.424-.13-.724-.619-.632-.469.085-.893.274-.821.854a7,7,0,0,0,.346,1.089c-.039.02-.085.046-.124.065C73.106,86.481,73.484,87.107,73.836,87.753Zm0,0" transform="translate(-29.859 -28.88)" fill="#3b1100" fill-rule="evenodd"/>
          </g>
        </g>
      </g>
    </g>
  </g>
</svg>
