<?xml version="1.0" encoding="UTF-8"?>
<svg id="Calque_2" data-name="Calque 2" xmlns="http://www.w3.org/2000/svg" viewBox="0 0 109.04 24.51">
  <defs>
    <style>
      .cls-1 {
        fill: #fee759;
        stroke-width: 0px;
      }
    </style>
  </defs>
  <g id="Calque_1-2" data-name="Calque 1">
    <g>
      <g>
        <path class="cls-1" d="m13.89,21.8c-.05-.65-.14-1.15-.27-1.51-1.31.05-3.04.09-5.21.09s-3.94.04-5.35.13C2.77,10.46,2.46,3.83,2.14.61L.22.41c-.02,1.49-.04,4.85-.04,10.08-.02,5.21-.07,9.38-.18,12.51h3.5c4.28,0,7.8.09,10.55.25-.05-.32-.13-.81-.16-1.46Z"/>
        <path class="cls-1" d="m23.83,15.27c-1.22-3.18-2.03-5.62-2.43-7.37l-1.58-.11c-.45,1.62-1.28,4.03-2.46,7.22-1.17,3.18-1.99,5.61-2.44,7.24,0,.38.11.7.32.95.22.27.47.4.75.4.27,0,.5-.13.72-.38.16-.43.36-1.22.63-2.35.27-1.15.49-1.96.66-2.48.75.09,2.57.32,5.44.68.68,1.85,1.1,3.09,1.22,3.7.05.27.16.49.32.63.16.14.34.22.52.22.22,0,.38-.11.52-.31.14-.2.22-.5.22-.92-.4-1.56-1.2-3.95-2.43-7.13Zm-3.25,2.12h-2.35c1.28-3.29,2.05-5.77,2.34-7.48.2,1.13.58,2.44,1.15,3.95.41,1.1.93,2.32,1.55,3.63-.72-.07-1.62-.11-2.68-.11Z"/>
        <path class="cls-1" d="m47.94,19.78c-2.73,1.38-4.78,2.08-6.09,2.08-1.22,0-2.3-.59-3.23-1.74-.92-1.15-1.58-2.41-1.96-3.74-.4-1.35-.59-2.53-.59-3.59s.02-2.01.07-2.8c.05-.81.2-1.76.41-2.84.23-1.1.54-2.01.92-2.73.4-.72.97-1.31,1.72-1.83.75-.5,1.67-.75,2.71-.75,1.6,0,3.22.61,4.87,1.83l1.26-1.46c-.92-.63-2.03-1.15-3.34-1.58-1.31-.41-2.57-.63-3.79-.63-1.42,0-2.62.41-3.65,1.2-1.02.81-1.78,1.85-2.3,3.16-.5,1.29-.86,2.61-1.06,3.9-.22,1.29-.32,2.62-.32,3.99,0,1.24.18,2.55.52,3.94.34,1.38.84,2.7,1.49,3.97.63,1.26,1.51,2.3,2.64,3.13,1.11.81,2.34,1.22,3.68,1.22,2.08,0,4.46-.92,7.12-2.75-.45-.92-.81-1.58-1.08-1.98Z"/>
        <path class="cls-1" d="m59.96,23.4c-.81-.22-1.64-.83-2.46-1.78-.81-.97-1.47-1.98-1.96-3,.68-.05,1.29-.25,1.81-.59.54-.32.95-.75,1.26-1.28.29-.52.52-1.08.68-1.67.14-.59.22-1.22.22-1.87,0-1.76-.38-3.13-1.15-4.1-.77-.97-1.92-1.46-3.49-1.46-1.44,0-2.55.25-3.36.79-.02-.05-.02-.31-.02-.75l-.97.25c-.07,1.87-.14,4.51-.2,7.92-.05,3.41-.09,5.7-.14,6.88.05.29.22.54.45.74.23.22.47.31.74.31.36,0,.61-.22.74-.65-.09-2.16-.14-3.76-.16-4.78l1.65.2c.34.58.74,1.19,1.2,1.8.47.61,1.01,1.2,1.6,1.81.59.59,1.24,1.08,1.92,1.47.68.4,1.35.59,1.98.61l-.34-.86Zm-8.09-6.97l-.04-1.17-.11-4.4-.02-.99c.88-.68,1.76-1.02,2.62-1.02,1.04,0,1.92.47,2.62,1.38.7.9,1.04,1.92,1.04,3.07,0,1.04-.34,1.94-1.01,2.68-.66.72-1.49,1.08-2.46,1.08s-1.89-.2-2.66-.63Z"/>
        <path class="cls-1" d="m70.87,13.1c-.07-.68-.22-1.4-.43-2.17-.22-.75-.5-1.38-.88-1.9-.36-.52-.86-.95-1.51-1.29-.65-.34-1.4-.52-2.26-.52-.45,0-.84.05-1.2.14-.38.11-.68.25-.95.45-.27.22-.52.43-.74.65-.23.23-.41.52-.56.88-.14.38-.29.7-.4.99-.11.29-.2.66-.27,1.13-.07.47-.13.86-.16,1.15-.04.29-.05.7-.07,1.2-.04.5-.04.88-.04,1.13v1.08c0,.99.04,1.85.13,2.59.09.74.25,1.4.49,2.03.23.61.56,1.11.95,1.49.4.38.92.66,1.55.88.61.22,1.37.32,2.23.32.54,0,1.02-.11,1.46-.29.43-.18.81-.41,1.1-.7s.54-.65.74-1.1c.22-.45.38-.88.5-1.31.11-.43.2-.93.27-1.51s.11-1.08.13-1.53.04-.95.04-1.51c0-.83-.04-1.6-.09-2.28Zm-2.19,7.1c-.5,1.1-1.28,1.67-2.3,1.73-.47-.02-.88-.11-1.26-.29-.38-.16-.68-.38-.92-.61-.22-.23-.43-.56-.59-.97-.16-.43-.29-.79-.38-1.11-.07-.32-.13-.77-.18-1.31-.04-.56-.05-.99-.07-1.29v-1.31c0-.83.09-1.71.27-2.64.18-.93.49-1.78.92-2.53s.93-1.13,1.49-1.13c.74,0,1.38.27,1.92.83.54.54.92,1.22,1.17,2.08.25.86.43,1.65.54,2.41.09.74.14,1.46.14,2.14,0,1.6-.25,2.93-.75,4.03Z"/>
        <path class="cls-1" d="m81.99,7.55l-1.24-.11c-.04.77-.05,2.5-.07,5.19s-.07,4.65-.16,5.86c-.05.49-.09.84-.13,1.08-.04.25-.09.54-.18.88-.07.32-.2.58-.34.74-.14.18-.34.34-.58.5-.22.18-.52.29-.88.36-.36.05-.77.09-1.28.09s-.9-.07-1.24-.22c-.34-.14-.59-.31-.77-.5-.18-.2-.32-.49-.43-.84-.11-.36-.18-.68-.2-.97-.04-.27-.05-.65-.07-1.13-.04-1.01-.13-2.71-.25-5.1-.13-2.39-.2-4.24-.23-5.53l-1.15-.25c-.09,3.05-.13,5.1-.13,6.11,0,1.19.04,2.64.11,4.37v.07c.02.5.05.92.07,1.29.04.36.07.75.14,1.15.05.41.14.75.27,1.06.13.29.29.58.5.84.2.27.47.5.75.66.31.18.68.31,1.13.41s.97.16,1.56.16c.81,0,1.51-.09,2.08-.25.58-.16,1.04-.38,1.4-.65.36-.27.65-.65.84-1.11.22-.45.36-.93.45-1.42s.14-1.08.16-1.78c.07-1.65.11-3.13.11-4.42,0-1.78-.09-3.95-.27-6.54Z"/>
        <path class="cls-1" d="m83.11,9.51l6.58,12.02c-.61.04-1.64.09-3.09.14-1.44.05-2.46.11-3.07.13l-.04,1.29c.81.02,1.44.04,1.89.04.61,0,1.53-.02,2.75-.04,1.22-.04,2.1-.05,2.66-.05.43,0,.95.02,1.6.05l-.13-1.15c-.04-.4-.52-1.37-1.44-2.93-.92-1.56-2.05-3.41-3.38-5.53-1.33-2.12-2.16-3.45-2.48-4.03.5-.02,1.28-.05,2.32-.07,1.04-.04,2.01-.07,2.88-.11.86-.04,1.64-.09,2.32-.14v-1.15s-.63,0-.63,0c-.09,0-3-.04-8.73-.14v1.67Z"/>
        <path class="cls-1" d="m97.97,21.9c-.63-.05-1.06-.11-1.28-.14-.04-.83-.05-2.19-.05-4.11v-5.28c-.02-1.58-.04-2.57-.07-2.96.11-.02.38-.04.81-.05.45-.02.77-.07,1.02-.18l-.07-1.02c-.59-.02-1.53-.04-2.75-.04s-2.1,0-2.68-.02l.14,1.2,2.12.11c.02.77.05,2.35.11,4.73.05,2.39.09,4.22.09,5.48,0,.95,0,1.67-.02,2.16-.31.02-1.11.13-2.41.34l.05,1.02c.38,0,1.06,0,1.99-.02h2.12c.92,0,1.58,0,2.01.02l.04-1.1c-.16-.04-.56-.07-1.19-.13Z"/>
        <path class="cls-1" d="m106.81,3.11c-.18-.07-.34-.13-.5-.13-.14,0-.29.02-.4.09-.11.05-.22.13-.31.2-.09.09-.18.2-.25.34-.07.13-.14.25-.2.38-.05.11-.13.25-.22.41-.07.18-.14.31-.22.43l-.95,1.78,1.67-.22,1.67-3.2-.31-.09Zm-4.42,18.38c0-.59.02-1.53.04-2.79.02-1.24.04-2.19.04-2.8.5-.02,2.25-.16,5.19-.41l-.2-.97c-.34-.04-1.15-.11-2.41-.2-1.26-.11-2.14-.2-2.61-.25-.02-.65-.05-1.47-.11-2.46-.04-1.01-.07-1.65-.09-1.98.11-.02,1.1-.11,3-.25,1.89-.16,3.14-.29,3.79-.41l-.23-.93c-.65-.11-1.98-.16-4.04-.2-2.05-.02-3.32-.05-3.79-.11-.16,1.44-.25,3.97-.29,7.58-.02,3.63-.11,6.22-.25,7.74.4.11,1.1.16,2.14.16.65,0,1.69-.04,3.13-.07,1.44-.05,2.43-.09,2.98-.09l-.22-.93c-.83-.13-2.86-.34-6.07-.63Z"/>
      </g>
      <path class="cls-1" d="m20.66,9.45l-3.74,8.3h7.48l-3.74-8.3Zm-.61,7.94l1.65-3.52c.41,1.1.93,2.32,1.55,3.63-.72-.07-1.62-.11-2.68-.11h-.52Z"/>
      <path class="cls-1" d="m54.55,8.34c-2.21,0-4.03,2.17-4.03,4.85s1.81,4.85,4.03,4.85,4.03-2.17,4.03-4.85-1.8-4.85-4.03-4.85Zm-2.82,2.52c.31-.22.66-.34,1.04-.34,1.15,0,2.08,1.11,2.08,2.5s-.93,2.52-2.08,2.52c-.34,0-.66-.09-.93-.27l-.11-4.4Z"/>
      <path class="cls-1" d="m66.14,8.34c-2.35,0-4.26,3.23-4.26,7.21s1.9,7.19,4.26,7.19,4.28-3.22,4.28-7.19-1.9-7.21-4.28-7.21Zm.92,13.23c-.86,0-1.58-1.28-1.58-2.84s.72-2.82,1.58-2.82,1.6,1.26,1.6,2.82-.72,2.84-1.6,2.84Z"/>
    </g>
  </g>
</svg>