<svg xmlns="http://www.w3.org/2000/svg" width="92.062" height="167.607" viewBox="0 0 92.062 167.607">
  <g id="Calque_2" data-name="Calque 2" transform="translate(0.001 -0.009)">
    <path id="Tracé_8" data-name="Tracé 8" d="M16,139.909c.775.236,1.5.43,2.208.678a74.741,74.741,0,0,0,18.962,4.1,112.745,112.745,0,0,0,18.233-.037,70.189,70.189,0,0,0,17.622-3.414c2.126-.756,4.2-1.684,6.255-2.628A91.546,91.546,0,0,0,91.2,132.015c1.565-1.026,2.976-2.287,4.469-3.425a12.544,12.544,0,0,1,2.175-1.37c-.468.973-.925,1.95-1.411,2.916-.61,1.209-1.254,2.4-1.872,3.608-1.112,2.167-2.2,4.349-3.331,6.505-.846,1.61-1.737,3.2-2.616,4.787-1.722,3.114-3.481,6.21-5.154,9.35-.887,1.669-1.654,3.41-2.422,5.139-.973,2.2-1.89,4.432-2.834,6.648-.872,2.051-1.763,4.095-2.62,6.15-.9,2.152-1.812,4.3-2.635,6.476-.932,2.467-1.845,4.948-2.631,7.467-.954,3.058-1.815,6.15-2.635,9.249-.88,3.328-1.643,6.681-2.485,10.02-.88,3.485-1.785,6.962-2.688,10.443-.5,1.935-1.041,3.859-1.512,5.8-.341,1.4-.172,1.613,1.018,2.381a12.43,12.43,0,0,1,4.956,5.82,11.043,11.043,0,0,1,.741,7,12.758,12.758,0,0,1-5.645,8.014A13.826,13.826,0,0,1,49.2,246.156a13.153,13.153,0,0,1-4.683-3.182,13.562,13.562,0,0,1-2.927-5.173,8.932,8.932,0,0,1-.352-5.222,12.623,12.623,0,0,1,8.287-9.642c.726-.262,1.007-.6.812-1.415-.337-1.426-.52-2.89-.846-4.323-.812-3.608-1.625-7.217-2.519-10.8-.846-3.387-1.782-6.749-2.721-10.114-.842-3.013-1.707-6.023-2.624-9.017q-1.224-4.009-2.59-7.977-1.23-3.565-2.609-7.074c-.827-2.1-1.722-4.17-2.646-6.225q-1.151-2.555-2.44-5.049-1.252-2.426-2.639-4.776a41.194,41.194,0,0,0-2.605-4.08c-1.677-2.2-3.425-4.349-5.259-6.416a34.2,34.2,0,0,0-3.163-2.792c-.853-.749-1.752-1.471-1.684-2.972ZM67.345,176.9c-.079-1.958-.071-3.923-.255-5.873-.348-3.706-.749-7.4-2.4-10.847a27.356,27.356,0,0,0-3.1-5.289,3.876,3.876,0,0,0-3.653-1.523,10.117,10.117,0,0,0-6.58,3.2,25.273,25.273,0,0,0-5.532,9.23,25.987,25.987,0,0,0-1.291,8.3,119.125,119.125,0,0,0,2.3,27.661c.958,4.417,1.842,8.849,2.819,13.262.479,2.16,1.115,4.286,1.639,6.438.15.614.438.752,1.037.692a14.818,14.818,0,0,1,6.273.434c.88.292,1.138.138,1.377-.771.846-3.2,1.778-6.382,2.493-9.616.973-4.391,1.782-8.815,2.646-13.228.213-1.086.367-2.186.532-3.283a132.2,132.2,0,0,0,1.7-18.79Z" transform="translate(-10.006 -79.595)" fill="#7b146a"/>
    <path id="Tracé_9" data-name="Tracé 9" d="M72.971,1.739C71.578,5.751,70.2,9.723,68.8,13.762c-.666,0-1.535.03-2.4,0a225.694,225.694,0,0,0-23.656.329,108.627,108.627,0,0,0-16.589,2.321,52.348,52.348,0,0,0-12.678,4.3,23.685,23.685,0,0,0-6.535,4.686,12.588,12.588,0,0,0-3.092,5.6,2.566,2.566,0,0,1-1.336,2.04,1.61,1.61,0,0,1-1.785-.3,1.6,1.6,0,0,1-.655-1.767c.677-2.235,1.28-4.51,2.164-6.663a27.507,27.507,0,0,1,2.927-5.48,41.581,41.581,0,0,1,5.019-5.907A38.97,38.97,0,0,1,21.264,5.65,51.8,51.8,0,0,1,33.586,1.735C37.179,1.1,40.821.683,44.46.365A103.444,103.444,0,0,1,61.689.372c3.59.284,7.164.8,10.743,1.217a3.041,3.041,0,0,1,.535.153Z" transform="translate(0 0)" fill="#7b146a"/>
    <path id="Tracé_10" data-name="Tracé 10" d="M95.405,79.171c-4.656-.045-8.16-1.179-11.154-3.885a12.985,12.985,0,0,1-3.242-15.4,13.742,13.742,0,0,1,9.436-7.651,14.909,14.909,0,0,1,11.214,1.374,13.859,13.859,0,0,1,5.368,5.15,12.489,12.489,0,0,1,.663,12.184,13.12,13.12,0,0,1-8.306,7.3C97.872,78.711,96.3,78.969,95.405,79.171Z" transform="translate(-49.901 -32.347)" fill="#7b146a"/>
    <path id="Tracé_11" data-name="Tracé 11" d="M104.38,80.773c-1.531,2.193-2.983,4.451-4.615,6.569a40.63,40.63,0,0,1-8.811,8.119,79.888,79.888,0,0,1-7.449,4.645A86.528,86.528,0,0,1,70,106.3a53.17,53.17,0,0,1-16.073,2.766,63.41,63.41,0,0,1-17.3-1.98,70.478,70.478,0,0,1-13.307-4.87c-.857-.408-1.733-.782-2.575-1.217-1.1-.569-1.336-1.205-.707-2.287.666-1.142,1.475-2.2,2.261-3.354.472.277.823.464,1.157.685a49.6,49.6,0,0,0,12.625,6.015,47.7,47.7,0,0,0,11.637,2.306,96.361,96.361,0,0,0,9.811.037,56.592,56.592,0,0,0,14.853-2.759c2.422-.779,4.817-1.647,7.19-2.564a62.364,62.364,0,0,0,11.282-5.824,32.113,32.113,0,0,0,2.95-2.1c1.49-1.22,2.935-2.5,4.368-3.792a30.857,30.857,0,0,0,5.192-5.865,8.375,8.375,0,0,1,.809-.906l.213.18Z" transform="translate(-12.323 -50.419)" fill="#7b146a"/>
  </g>
</svg>
