<svg id="logo-dly-darkbrown" xmlns="http://www.w3.org/2000/svg" width="52.918" height="96.343" viewBox="0 0 52.918 96.343">
  <path id="Tracé_8" data-name="Tracé 8" d="M15.995,134.514c.445.136.863.247,1.269.389a42.962,42.962,0,0,0,10.9,2.356,64.808,64.808,0,0,0,10.48-.022,40.346,40.346,0,0,0,10.13-1.962c1.222-.435,2.414-.968,3.6-1.51a52.62,52.62,0,0,0,6.855-3.789c.9-.59,1.711-1.315,2.569-1.969a7.21,7.21,0,0,1,1.25-.787c-.269.559-.531,1.121-.811,1.676-.351.695-.721,1.381-1.076,2.074-.639,1.246-1.263,2.5-1.915,3.739-.486.925-1,1.837-1.5,2.752-.99,1.79-2,3.569-2.963,5.375-.51.96-.951,1.96-1.392,2.954-.559,1.267-1.087,2.547-1.629,3.821-.5,1.179-1.013,2.354-1.506,3.535-.516,1.237-1.041,2.47-1.515,3.722-.536,1.418-1.061,2.844-1.513,4.292-.549,1.758-1.044,3.535-1.515,5.317-.506,1.913-.945,3.841-1.429,5.76-.506,2-1.026,4-1.545,6-.288,1.112-.6,2.218-.869,3.333-.2.807-.1.927.585,1.368a7.145,7.145,0,0,1,2.849,3.346,6.348,6.348,0,0,1,.426,4.021,7.333,7.333,0,0,1-3.245,4.607,7.948,7.948,0,0,1-7.4.671,7.561,7.561,0,0,1-2.692-1.829,7.8,7.8,0,0,1-1.683-2.973,5.134,5.134,0,0,1-.2-3,7.256,7.256,0,0,1,4.764-5.542c.417-.151.579-.346.467-.813-.194-.82-.3-1.661-.486-2.485-.467-2.074-.934-4.148-1.448-6.209-.486-1.947-1.024-3.879-1.564-5.814-.484-1.732-.981-3.462-1.508-5.183q-.7-2.3-1.489-4.585-.707-2.049-1.5-4.066c-.475-1.2-.99-2.4-1.521-3.578q-.662-1.468-1.4-2.9-.72-1.394-1.517-2.745a23.678,23.678,0,0,0-1.5-2.345c-.964-1.263-1.969-2.5-3.023-3.688a19.665,19.665,0,0,0-1.818-1.605,2.031,2.031,0,0,1-.968-1.708ZM45.51,155.776c-.045-1.125-.041-2.255-.146-3.376a18,18,0,0,0-1.377-6.235,15.725,15.725,0,0,0-1.784-3.04,2.228,2.228,0,0,0-2.1-.876,5.815,5.815,0,0,0-3.782,1.84,14.527,14.527,0,0,0-3.18,5.306,14.938,14.938,0,0,0-.742,4.77,68.475,68.475,0,0,0,1.321,15.9c.551,2.539,1.059,5.086,1.62,7.623.275,1.241.641,2.464.942,3.7.086.353.252.432.6.4a8.518,8.518,0,0,1,3.606.25c.506.168.654.08.792-.443.486-1.84,1.022-3.668,1.433-5.527.559-2.524,1.024-5.067,1.521-7.6.123-.624.211-1.257.306-1.887a75.987,75.987,0,0,0,.977-10.8Z" transform="translate(-12.55 -99.85)" fill="#3b1100"/>
  <path id="Tracé_9" data-name="Tracé 9" d="M41.944,1c-.8,2.306-1.592,4.589-2.4,6.911-.383,0-.882.017-1.381,0a129.732,129.732,0,0,0-13.6.189A62.441,62.441,0,0,0,15.03,9.435a30.09,30.09,0,0,0-7.287,2.47A13.614,13.614,0,0,0,3.986,14.6a7.236,7.236,0,0,0-1.777,3.219,1.475,1.475,0,0,1-.768,1.173.925.925,0,0,1-1.026-.17A.921.921,0,0,1,.038,17.8c.389-1.284.736-2.593,1.244-3.83a15.812,15.812,0,0,1,1.683-3.15,23.9,23.9,0,0,1,2.885-3.4,22.4,22.4,0,0,1,6.373-4.178A29.775,29.775,0,0,1,19.305,1c2.066-.364,4.159-.6,6.25-.787a59.461,59.461,0,0,1,9.9,0c2.063.164,4.118.46,6.175.7a1.748,1.748,0,0,1,.308.088Z" transform="translate(0.001 -0.009)" fill="#3b1100"/>
  <path id="Tracé_10" data-name="Tracé 10" d="M88.75,67.494a9.05,9.05,0,0,1-6.412-2.233,7.464,7.464,0,0,1-1.863-8.854,7.9,7.9,0,0,1,5.424-4.4,8.57,8.57,0,0,1,6.446.79,7.966,7.966,0,0,1,3.085,2.961,7.179,7.179,0,0,1,.381,7,7.542,7.542,0,0,1-4.774,4.2C90.168,67.229,89.262,67.377,88.75,67.494Z" transform="translate(-62.593 -40.584)" fill="#3b1100"/>
  <path id="Tracé_11" data-name="Tracé 11" d="M68.372,80.7c-.88,1.261-1.715,2.558-2.653,3.776a23.355,23.355,0,0,1-5.065,4.667,45.92,45.92,0,0,1-4.282,2.67,49.737,49.737,0,0,1-7.765,3.559,30.563,30.563,0,0,1-9.239,1.59,36.448,36.448,0,0,1-9.942-1.138,40.511,40.511,0,0,1-7.649-2.8c-.493-.235-1-.45-1.48-.7-.633-.327-.768-.693-.407-1.315.383-.656.848-1.263,1.3-1.928.271.159.473.267.665.394a28.513,28.513,0,0,0,7.257,3.458A27.418,27.418,0,0,0,35.8,94.255a55.386,55.386,0,0,0,5.639.022,32.53,32.53,0,0,0,8.537-1.586c1.392-.448,2.769-.947,4.133-1.474A35.847,35.847,0,0,0,60.6,87.869a18.458,18.458,0,0,0,1.7-1.207c.856-.7,1.687-1.439,2.511-2.18a17.737,17.737,0,0,0,2.984-3.372,4.813,4.813,0,0,1,.465-.521l.123.1Z" transform="translate(-15.456 -63.252)" fill="#3b1100"/>
</svg>
