<svg id="lcdm-black" xmlns="http://www.w3.org/2000/svg" xmlns:xlink="http://www.w3.org/1999/xlink" width="144.331" height="149.199" viewBox="0 0 144.331 149.199">
  <defs>
    <clipPath id="clip-path">
      <path id="Tracé_4069" data-name="Tracé 4069" d="M.4.4,134.884,0l-.4,139.73L0,140.132Zm0,0" transform="translate(0 0)"/>
    </clipPath>
    <clipPath id="clip-path-2">
      <path id="Tracé_4068" data-name="Tracé 4068" d="M0,18.989,134.954,0l17.424,140.584L17.424,159.573Zm0,0" transform="translate(0 0)"/>
    </clipPath>
    <clipPath id="clip-path-3">
      <path id="Tracé_4067" data-name="Tracé 4067" d="M0,18.989,134.954,0l17.424,140.584L17.424,159.573Zm0,0"/>
    </clipPath>
    <clipPath id="clip-path-4">
      <path id="Tracé_4073" data-name="Tracé 4073" d="M60,81h41.2v38.361H60Zm0,0" transform="translate(-60 -81)"/>
    </clipPath>
    <clipPath id="clip-path-5">
      <path id="Tracé_4072" data-name="Tracé 4072" d="M94.621,50.9l49.428,51.509L96.375,148.15,46.953,96.635Zm0,0" transform="translate(-46.953 -50.898)"/>
    </clipPath>
    <clipPath id="clip-path-7">
      <path id="Tracé_4077" data-name="Tracé 4077" d="M88,80h26.995V97.049H88Zm0,0" transform="translate(-88 -80)"/>
    </clipPath>
    <clipPath id="clip-path-10">
      <path id="Tracé_4081" data-name="Tracé 4081" d="M59,70h9.945V92.732H59Zm0,0" transform="translate(-59 -70)"/>
    </clipPath>
    <clipPath id="clip-path-13">
      <path id="Tracé_4085" data-name="Tracé 4085" d="M84,71h24.153V92.312H84Zm0,0" transform="translate(-84 -71)"/>
    </clipPath>
    <clipPath id="clip-path-16">
      <path id="Tracé_4089" data-name="Tracé 4089" d="M79,65H98.891V89.153H79Zm0,0" transform="translate(-79 -65)"/>
    </clipPath>
    <clipPath id="clip-path-19">
      <path id="Tracé_4093" data-name="Tracé 4093" d="M90,92h24.153v8.525H90Zm0,0" transform="translate(-90 -92)"/>
    </clipPath>
    <clipPath id="clip-path-22">
      <path id="Tracé_4097" data-name="Tracé 4097" d="M72,83h4.262v7.1H72Zm0,0" transform="translate(-72 -83)"/>
    </clipPath>
  </defs>
  <g id="Flyer_double_Assos_1_" data-name="Flyer double Assos (1)" transform="matrix(0.998, -0.07, 0.07, 0.998, 0, 9.409)" clip-path="url(#clip-path)">
    <g id="Groupe_1463" data-name="Groupe 1463" transform="translate(-8.684 -9.632)" clip-path="url(#clip-path-2)">
      <g id="Groupe_1462" data-name="Groupe 1462" transform="translate(0 0)" clip-path="url(#clip-path-3)">
        <path id="Tracé_4066" data-name="Tracé 4066" d="M76.887,108.573a36.984,36.984,0,0,1-29.393-3.855A39.586,39.586,0,0,1,29.453,80.312a41.679,41.679,0,0,1,3.87-30.662A39.027,39.027,0,0,1,56.838,30.7a38.229,38.229,0,0,1,4.289-.961c19.211-3.13,38.005,9.24,43.142,29.219A41.688,41.688,0,0,1,100.4,89.62,39.051,39.051,0,0,1,76.887,108.573Zm53.289-65.643a3.76,3.76,0,0,0-3.958-2.881l-16.961,1.572a51.082,51.082,0,0,0-7.869-9.892l5.5-16A4,4,0,0,0,105.223,11L93.782,4.186a3.677,3.677,0,0,0-4.77.894L77.989,18.722A47.724,47.724,0,0,0,65.706,17.53L58.769,2.236a3.7,3.7,0,0,0-4.39-2.1L41.617,3.78a3.963,3.963,0,0,0-2.786,4.146L40.239,25.58a50.51,50.51,0,0,0-9.563,8.27L15.393,28.221a3.727,3.727,0,0,0-4.546,1.764L4.242,41.952a4.043,4.043,0,0,0,.83,4.967L18.048,58.292a53.5,53.5,0,0,0-1.191,12.864L2.168,78.465a4.022,4.022,0,0,0-2.04,4.594l3.42,13.28a3.761,3.761,0,0,0,3.959,2.881L24.45,97.648a50.593,50.593,0,0,0,7.876,9.922l-5.489,15.966a3.993,3.993,0,0,0,1.666,4.729l11.439,6.818a3.683,3.683,0,0,0,4.771-.894l11.011-13.626a47.525,47.525,0,0,0,12.312,1.215l6.917,15.255a3.714,3.714,0,0,0,4.394,2.1l12.759-3.643a3.952,3.952,0,0,0,2.785-4.145l-1.406-17.657a50.284,50.284,0,0,0,9.561-8.27l15.286,5.631a3.725,3.725,0,0,0,4.546-1.766l6.605-11.965a4.045,4.045,0,0,0-.832-4.969L115.678,80.977a53.84,53.84,0,0,0,1.191-12.863L131.56,60.8a4.019,4.019,0,0,0,2.036-4.592l-3.42-13.281" transform="translate(9.304 10.135)"/>
      </g>
    </g>
  </g>
  <g id="Flyer_double_Assos_2_" data-name="Flyer double Assos (2)" transform="translate(38.155 44.053)">
    <g id="Groupe_1466" data-name="Groupe 1466" transform="translate(1.421 22.733)" clip-path="url(#clip-path-4)">
      <g id="Groupe_1465" data-name="Groupe 1465" transform="translate(-18.537 -42.768)" clip-path="url(#clip-path-5)">
        <g id="Groupe_1464" data-name="Groupe 1464" clip-path="url(#clip-path-5)">
          <path id="Tracé_4070" data-name="Tracé 4070" d="M99.461,105.514c.216-.8.494-1.6.66-2.409a3.528,3.528,0,0,0-.028-1.3c-.178-.938-.4-1.87-.627-2.8a6.267,6.267,0,0,0-2.536-3.574c-1.093-.81-1.177-2.037-1.46-3.2a27.8,27.8,0,0,0-.877-3c-.122-.327-.6-.527-.921-.777a5.7,5.7,0,0,1-.549-.383,12.786,12.786,0,0,0-3.9-2.625c-.117-.05-.205-.183-.305-.277.117-.1.211-.261.35-.3a6.86,6.86,0,0,1,.966-.144,5.771,5.771,0,0,0-.5-.721,8.52,8.52,0,0,0-4.8-2.553,3.877,3.877,0,0,0-4.1,2.442,5.3,5.3,0,0,0-.283,3.463l.927,3.086a3.944,3.944,0,0,0,.106.744A46.749,46.749,0,0,0,82.928,95.7a13.651,13.651,0,0,0,1.426,2.137c.572.9,1.1,1.842,1.637,2.769a.67.67,0,0,1,.056.511c-.377-.433-.755-.866-1.132-1.3-.056.05-.111.094-.161.139a9.371,9.371,0,0,0,3.169,4.468c-.022.05-.044.1-.072.15-.216-.089-.494-.122-.633-.283a22.439,22.439,0,0,1-2.192-2.636,16.644,16.644,0,0,1-1.115-2.57c-.15-.355-.333-.7-.5-1.049-.061.011-.122.022-.189.039-.061.744-.078,1.5-.189,2.242-.205,1.371-.422,2.736-.71,4.09a6.2,6.2,0,0,1-.644,1.343c-.072-.028-.144-.056-.211-.083.039-.167.067-.327.111-.488a16.277,16.277,0,0,0,.76-6.238,8.81,8.81,0,0,0-.583-1.715,2.031,2.031,0,0,1-.205-.8,1.593,1.593,0,0,0-.511-1.393c-1.06-1-2.065-2.07-3.191-2.98A10.592,10.592,0,0,0,75.619,90.9a3.017,3.017,0,0,0-.71-.172c.033-.122.067-.244.094-.361a2.1,2.1,0,0,1,.755-.061,6.877,6.877,0,0,1,3.519,2.148c.411.483.832.955,1.271,1.41a5.625,5.625,0,0,0,.71.549,3.128,3.128,0,0,0,.011-.544q-.166-1.124-.35-2.248c-.056-.322-.205-.527-.583-.461-.594.1-.866-.239-1.138-.727-.821-1.487-1.637-2.986-2.6-4.379a3.4,3.4,0,0,0-2.864-1.732A1.92,1.92,0,0,0,72,85.3a8.412,8.412,0,0,1-.827,1.066,2.336,2.336,0,0,1-2.442.838,4.873,4.873,0,0,0-1.3-.067,3.939,3.939,0,0,0-3.18,2.109,19.2,19.2,0,0,0-1.21,2.736c-.2.466-.361.954-.583,1.41-.477,1.01-1.021,1.993-1.471,3.014a5.983,5.983,0,0,0,.4,5.345,7.367,7.367,0,0,0,2.642,2.969,5.688,5.688,0,0,0,4.151.555,6.64,6.64,0,0,0,4.551-3c.144-.217.622-.488.666-.444.339.327-.011.588-.2.8a11.519,11.519,0,0,1-4.146,3.352,8.571,8.571,0,0,1-1.648.377c-.283.055-.577.061-1.01.105.888.838,1.659,1.576,2.514,2.387.144-.489.277-.922.405-1.355l.233.017a4.944,4.944,0,0,1,.322.7c.161.533.289,1.071.433,1.61a4.644,4.644,0,0,1,.122,2.309,1.573,1.573,0,0,0,.244.949,10.947,10.947,0,0,0,3.441,4.09A7.024,7.024,0,0,0,80.1,118.2c.361-.1.744-.134,1.115-.206l.649-.2c.76-.406,1.5-.85,2.286-1.216,2.509-1.154,5.006-2.326,7.548-3.4a19.328,19.328,0,0,0,6.072-4.363A7.021,7.021,0,0,0,99.461,105.514Zm0,0" transform="translate(-41.243 -38.06)" fill-rule="evenodd"/>
        </g>
      </g>
    </g>
    <g id="Groupe_1469" data-name="Groupe 1469" transform="translate(41.203 21.312)" clip-path="url(#clip-path-7)">
      <g id="Groupe_1468" data-name="Groupe 1468" transform="translate(-58.319 -41.347)" clip-path="url(#clip-path-5)">
        <g id="Groupe_1467" data-name="Groupe 1467" clip-path="url(#clip-path-5)">
          <path id="Tracé_4074" data-name="Tracé 4074" d="M90.282,95.762a5.313,5.313,0,0,0,2.009-.3,11.964,11.964,0,0,0,2.375-1.054,3.869,3.869,0,0,0,.9-1.1,7.59,7.59,0,0,0,.422-.76c.427.927,1.043.788,1.654.566,2.048-.749,4.1-1.487,6.133-2.281a2.229,2.229,0,0,0,1.493-1.776,7.956,7.956,0,0,1,.872-1.82,7.261,7.261,0,0,0,.627,1.149.782.782,0,0,0,.649.233,24.256,24.256,0,0,0,5.6-2.475,3.243,3.243,0,0,0,1.709-2.642c-.145-.438-.284-.877-.428-1.315-.311-.272-.611-.566-.943-.81a3.081,3.081,0,0,0-2.692-.3,13.175,13.175,0,0,0-5.317,2.586,4.257,4.257,0,0,0-.344.289c-.711.7-.666.677-.072,1.5a5.15,5.15,0,0,1,.577,1.415c.045.122-.055.289-.094.438a1.487,1.487,0,0,0-.155.022q-.435-.774-.866-1.549c-.05.022-.1.039-.15.061.133.333.289.666.394,1.01a14.769,14.769,0,0,1,.378,1.6c.027.161-.128.355-.2.533-.117-.144-.3-.278-.339-.444-.194-.76-.311-1.537-.527-2.287a1.645,1.645,0,0,0-2.159-1.232,11.723,11.723,0,0,0-3.974,2,13.893,13.893,0,0,0-1.432,1.11.961.961,0,0,0-.244.71,3.027,3.027,0,0,0,.339.91,1.747,1.747,0,0,1-.244,1.826,4.285,4.285,0,0,1-.244-.544c-.189-.666-.339-1.338-.55-1.992a3.1,3.1,0,0,0-.444-.655c.183.844.405,1.548.483,2.264a2.4,2.4,0,0,1-.461,2.226c-.117-.544-.194-.938-.294-1.326a11.641,11.641,0,0,0-.51-1.743.855.855,0,0,0-.727-.361,6.666,6.666,0,0,0-4.723,3.391A2.034,2.034,0,0,0,90.282,95.762Zm0,0" transform="translate(-29.449 -38.27)" fill-rule="evenodd"/>
        </g>
      </g>
    </g>
    <g id="Groupe_1472" data-name="Groupe 1472" transform="translate(0 7.104)" clip-path="url(#clip-path-10)">
      <g id="Groupe_1471" data-name="Groupe 1471" transform="translate(-17.116 -27.139)" clip-path="url(#clip-path-5)">
        <g id="Groupe_1470" data-name="Groupe 1470" clip-path="url(#clip-path-5)">
          <path id="Tracé_4078" data-name="Tracé 4078" d="M68.425,87.562A12.078,12.078,0,0,0,67.248,84.3a.734.734,0,0,1,.072-.927c.261-.35.472-.733.794-1.243l-.777.078a2.913,2.913,0,0,1-.022-1.892c.222-.355.538-.716-.144-.971-.066-.022.272.183.3.083a4.028,4.028,0,0,1,.316-.91,5.29,5.29,0,0,0-.205-5.333,7.16,7.16,0,0,0-2.109-2.4,3.373,3.373,0,0,0-2.536-.66,1.727,1.727,0,0,1-.333-.033l-.655.2c-1.965,1.232-2.131,3.152-2.031,5.245.105,2.2,1.215,4.085,1.842,6.122a8.49,8.49,0,0,1,.333,1.265c.089.649.111.672.727.383.555-.266,1.132-.5,1.7-.744.039.039.078.083.122.128a1.886,1.886,0,0,1-.277.461,2.042,2.042,0,0,0-.721,2.131,25.614,25.614,0,0,1,.394,2.825,9.156,9.156,0,0,1-.067,1.87c-.139,1.016.405,1.532,1.421,1.4A3.72,3.72,0,0,0,67.6,90.226,2.619,2.619,0,0,0,68.425,87.562Zm0,0" transform="translate(-41.508 -42.824)" fill-rule="evenodd"/>
        </g>
      </g>
    </g>
    <g id="Groupe_1475" data-name="Groupe 1475" transform="translate(35.52 8.525)" clip-path="url(#clip-path-13)">
      <g id="Groupe_1474" data-name="Groupe 1474" transform="translate(-52.636 -28.56)" clip-path="url(#clip-path-5)">
        <g id="Groupe_1473" data-name="Groupe 1473" clip-path="url(#clip-path-5)">
          <path id="Tracé_4082" data-name="Tracé 4082" d="M88.963,83.665a.65.65,0,0,0,.227.943,3.95,3.95,0,0,1,.594.688c-.067.067-.139.133-.205.194-.228-.144-.466-.283-.688-.438-.694-.472-1.027-.522-1.6-.072a6.769,6.769,0,0,0-2.869,3.957c-.266,1.343.233,2.015,1.615,2.031a5.691,5.691,0,0,0,4.351-1.726,1.9,1.9,0,0,0,.416-2.214.729.729,0,0,1-.083-.277,2.493,2.493,0,0,1,.094-.388,3.4,3.4,0,0,1,.289.205,1.848,1.848,0,0,1,.178.222c.283-.433.472-.433.7.011.155.305.3.616.438.932.155.366.422.477.727.25,1.632-1.221,3.319-2.381,4.828-3.741a20.221,20.221,0,0,1,2.048-1.77c1.41-.949,2.792-1.948,4.14-2.98a11.061,11.061,0,0,0,2.92-3.13c.781-1.338.527-3.94-1.438-4.6a2.3,2.3,0,0,0-2.125.283c-1.26.86-2.47,1.8-3.707,2.7-1.143.827-2.292,1.648-3.469,2.431-.438.294-.411.588-.155.949a6.66,6.66,0,0,1,1,1.448,14.811,14.811,0,0,1,.5,2.531.414.414,0,0,1-.211.35.469.469,0,0,1-.405-.078c-.155-.133.561-1.116.438-1.282-.633-.822-1.254-1.648-1.9-2.448-.166-.205-.383-.444-.727-.211-1.454.977-3.907,2.514-5.023,3.929A12.96,12.96,0,0,0,88.963,83.665Zm0,0" transform="translate(-31.216 -42.179)" fill-rule="evenodd"/>
        </g>
      </g>
    </g>
    <g id="Groupe_1478" data-name="Groupe 1478" transform="translate(28.416 0)" clip-path="url(#clip-path-16)">
      <g id="Groupe_1477" data-name="Groupe 1477" transform="translate(-45.532 -20.035)" clip-path="url(#clip-path-5)">
        <g id="Groupe_1476" data-name="Groupe 1476" clip-path="url(#clip-path-5)">
          <path id="Tracé_4086" data-name="Tracé 4086" d="M91.627,68.7c.028.977-.683,1.465-1.31,2-.91.794-1.831,1.571-2.753,2.353-.577.494-.533,1,.106,1.482.311.228.6.494.894.744-.039.066-.072.133-.111.194-.594-.172-1.188-.344-1.787-.516-.017.072-.039.139-.061.211l1.165.55c-.017.083-.039.161-.056.244-.388-.044-.777-.111-1.165-.117a1.252,1.252,0,0,0-.777.144,10.237,10.237,0,0,0-2.936,3.835.711.711,0,0,0,.383,1.049,7.913,7.913,0,0,1,1.549,1.177,2.633,2.633,0,0,1,.438.771c-.133.094-.178.139-.194.128a10.556,10.556,0,0,0-2.514-.488,1.267,1.267,0,0,0-1.593.627,21.179,21.179,0,0,0-1.188,3.063,2.024,2.024,0,0,0,1.371,2.642,1.615,1.615,0,0,0,1.715-.505c.894-.988,1.743-2.031,2.564-3.091a5.339,5.339,0,0,0,.533-1.154c.05.017.1.028.15.044-.094-.289-.205-.572-.272-.866a1.128,1.128,0,0,1,.067-.416c.133.028.327.006.394.089.316.383.577.211.788-.061,1.171-1.487,2.326-2.98,3.491-4.473.261-.338.083-.588-.167-.844a2.681,2.681,0,0,1-1-1.51c.416.111.744.194,1.121.289-.255-.438-.488-.849-.766-1.315.649.072.649.072,1.976,1.92.305-.305.6-.6.9-.9.355-.355.694-.738,1.077-1.066a21.978,21.978,0,0,0,4.285-5.112,3.36,3.36,0,0,0,.106-3.48,2.315,2.315,0,0,0-2.936-.949,9.168,9.168,0,0,0-3.374,3.041A.5.5,0,0,0,91.627,68.7Zm0,0" transform="translate(-33.209 -44.883)" fill-rule="evenodd"/>
        </g>
      </g>
    </g>
    <g id="Groupe_1481" data-name="Groupe 1481" transform="translate(44.044 38.361)" clip-path="url(#clip-path-19)">
      <g id="Groupe_1480" data-name="Groupe 1480" transform="translate(-61.16 -58.396)" clip-path="url(#clip-path-5)">
        <g id="Groupe_1479" data-name="Groupe 1479" clip-path="url(#clip-path-5)">
          <path id="Tracé_4090" data-name="Tracé 4090" d="M113.607,94.276a2.342,2.342,0,0,0-2.658-1.321c-1.277.294-2.536.649-3.819.927a6.284,6.284,0,0,1-1.792.161,15.958,15.958,0,0,0-4.712.133c-.438.1-.849.3-1.288.416a2.084,2.084,0,0,1-.871.128,10.579,10.579,0,0,0-4.457.266,7.4,7.4,0,0,0-3.075,1.26,1.877,1.877,0,0,0-.694,1.9,1.432,1.432,0,0,0,1.648,1.127c1.776-.122,3.546-.355,5.311-.555.561-.061.66-.472.66-.955a4.246,4.246,0,0,1,.072-.838c.017-.078.15-.161.239-.178.056-.011.172.1.189.172a3.982,3.982,0,0,1,.133.844,1.273,1.273,0,0,0,.966,1.277,6.588,6.588,0,0,0,5.051-.255,6.957,6.957,0,0,0,1.232-.577,4.373,4.373,0,0,0,.71-.894c.111-.139.239-.272.361-.405a1.476,1.476,0,0,1,.105.51c-.094.666-.006.749.678.566-.112-.505-.239-.96-.3-1.426-.021-.183.128-.378.2-.566a2.671,2.671,0,0,1,.4.483c.134.277.178.588.3.866.273.622.588.81,1.222.627a9.545,9.545,0,0,0,3.268-1.4A1.964,1.964,0,0,0,113.607,94.276Zm0,0" transform="translate(-28.765 -33.227)" fill-rule="evenodd"/>
        </g>
      </g>
    </g>
    <g id="Groupe_1484" data-name="Groupe 1484" transform="translate(18.47 25.574)" clip-path="url(#clip-path-22)">
      <g id="Groupe_1483" data-name="Groupe 1483" transform="translate(-35.586 -45.609)" clip-path="url(#clip-path-5)">
        <g id="Groupe_1482" data-name="Groupe 1482" clip-path="url(#clip-path-5)">
          <path id="Tracé_4094" data-name="Tracé 4094" d="M73.639,87.168c.227.422.383.877.633,1.276a6.079,6.079,0,0,0,.86,1.027c.078.078.305,0,.466,0a1.563,1.563,0,0,0-.033-.433c-.05-.139-.211-.233-.261-.366-.183-.461-.344-.938-.505-1.41A5.861,5.861,0,0,0,74.366,86a2.813,2.813,0,0,1-.622-1.626c.017-.361-.111-.616-.527-.538-.4.072-.76.233-.7.727a5.961,5.961,0,0,0,.294.927l-.106.056C73.017,86.086,73.339,86.618,73.639,87.168Zm0,0" transform="translate(-36.199 -37.046)" fill-rule="evenodd"/>
        </g>
      </g>
    </g>
  </g>
</svg>
